<svg width="24" height="24" viewBox="0 0 24 24" fill="none" xmlns="http://www.w3.org/2000/svg">
<path d="M8.51192 5.84062H15.4879L17.6973 1.76174C17.7684 1.63052 17.7959 1.48008 17.7758 1.3322C17.7557 1.18432 17.6891 1.04667 17.5855 0.939172C17.482 0.831669 17.347 0.759891 17.2 0.734224C17.053 0.708558 16.9016 0.730333 16.7678 0.7964C15.1867 1.57706 13.8041 1.24392 12.2031 0.858369C10.62 0.477041 8.82584 0.0448533 6.69579 0.760306C6.59858 0.792966 6.50968 0.846496 6.43534 0.917142C6.361 0.987789 6.30302 1.07384 6.26545 1.16927C6.22789 1.26469 6.21165 1.36718 6.21788 1.46955C6.22411 1.57191 6.25266 1.67167 6.30153 1.76184L8.51192 5.84062ZM16.2235 7.53243C16.132 7.43778 16.04 7.34246 15.9474 7.24649H8.05245C7.95998 7.34234 7.86796 7.43765 7.7764 7.53243C6.35088 9.00731 5.00435 10.4005 4.00203 11.9599C2.84956 13.7531 2.31274 15.5109 2.31274 17.4921C2.31274 19.7909 3.55217 21.5459 5.8969 22.5674C7.90235 23.4411 10.3224 23.6244 11.9994 23.6244C13.6886 23.6244 16.122 23.441 18.1217 22.567C20.4543 21.5475 21.6873 19.7927 21.6873 17.4921C21.6873 15.511 21.1505 13.7531 19.998 11.9599C18.9957 10.4005 17.6492 9.00731 16.2235 7.53243ZM12.1439 14.045C12.6475 14.1509 13.1682 14.2606 13.6148 14.555C14.1951 14.9375 14.4894 15.5287 14.4894 16.3123C14.4894 17.3466 13.734 18.2219 12.7023 18.5007V18.8634C12.7023 19.0499 12.6282 19.2287 12.4964 19.3606C12.3645 19.4924 12.1857 19.5665 11.9992 19.5665C11.8127 19.5665 11.6339 19.4924 11.502 19.3606C11.3701 19.2287 11.2961 19.0499 11.2961 18.8634V18.5007C10.2643 18.2219 9.50895 17.3466 9.50895 16.3123C9.50895 16.1258 9.58303 15.9469 9.71489 15.8151C9.84675 15.6832 10.0256 15.6091 10.2121 15.6091C10.3986 15.6091 10.5774 15.6832 10.7093 15.8151C10.8411 15.9469 10.9152 16.1258 10.9152 16.3123C10.9152 16.7951 11.4015 17.1877 11.9992 17.1877C12.5969 17.1877 13.0832 16.7949 13.0832 16.3123C13.0832 15.7685 12.9109 15.6434 11.8544 15.4211C11.3509 15.3152 10.8301 15.2055 10.3835 14.9112C9.80318 14.5286 9.50895 13.9374 9.50895 13.1539C9.50895 12.1189 10.2643 11.2431 11.2961 10.9642V10.6027C11.2961 10.4163 11.3701 10.2374 11.502 10.1056C11.6339 9.9737 11.8127 9.89962 11.9992 9.89962C12.1857 9.89962 12.3645 9.9737 12.4964 10.1056C12.6282 10.2374 12.7023 10.4163 12.7023 10.6027V10.9641C13.734 11.243 14.4894 12.1187 14.4894 13.1537C14.4894 13.3402 14.4153 13.5191 14.2835 13.6509C14.1516 13.7828 13.9728 13.8569 13.7863 13.8569C13.5998 13.8569 13.421 13.7828 13.2891 13.6509C13.1572 13.5191 13.0832 13.3402 13.0832 13.1537C13.0832 12.6703 12.5969 12.2772 11.9992 12.2772C11.4015 12.2772 10.9152 12.6704 10.9152 13.1537C10.9154 13.6978 11.0877 13.8227 12.1441 14.045H12.1439Z" fill="#707070"/>
</svg>
