<svg width="24" height="24" viewBox="0 0 24 24" fill="none" xmlns="http://www.w3.org/2000/svg">
<path d="M8.51167 5.84056H15.4877L17.6971 1.76168C17.7681 1.63046 17.7956 1.48002 17.7755 1.33214C17.7554 1.18426 17.6888 1.04661 17.5853 0.939111C17.4818 0.831608 17.3467 0.75983 17.1997 0.734163C17.0527 0.708496 16.9013 0.730272 16.7675 0.796339C15.1864 1.577 13.8038 1.24385 12.2029 0.858308C10.6197 0.47698 8.82559 0.0447922 6.69555 0.760245C6.59833 0.792905 6.50944 0.846434 6.4351 0.917081C6.36076 0.987728 6.30278 1.07378 6.26521 1.16921C6.22764 1.26463 6.21141 1.36712 6.21764 1.46949C6.22387 1.57185 6.25242 1.67161 6.30128 1.76178L8.51167 5.84056ZM16.2232 7.53237C16.1318 7.43771 16.0398 7.3424 15.9472 7.24643H8.0522C7.95973 7.34228 7.86772 7.43759 7.77616 7.53237C6.35064 9.00725 5.00411 10.4004 4.00178 11.9599C2.84931 13.7531 2.3125 15.5109 2.3125 17.4921C2.3125 19.7908 3.55192 21.5458 5.89666 22.5673C7.90211 23.441 10.3221 23.6244 11.9991 23.6244C13.6884 23.6244 16.1218 23.4409 18.1214 22.567C20.4541 21.5475 21.6871 19.7926 21.6871 17.4921C21.6871 15.5109 21.1502 13.753 19.9978 11.9599C18.9955 10.4004 17.6489 9.00725 16.2232 7.53237ZM12.1437 14.0449C12.6473 14.1509 13.168 14.2606 13.6146 14.5549C14.1949 14.9374 14.4892 15.5287 14.4892 16.3122C14.4892 17.3465 13.7338 18.2218 12.7021 18.5006V18.8633C12.7021 19.0498 12.628 19.2286 12.4961 19.3605C12.3643 19.4924 12.1854 19.5664 11.9989 19.5664C11.8125 19.5664 11.6336 19.4924 11.5018 19.3605C11.3699 19.2286 11.2958 19.0498 11.2958 18.8633V18.5006C10.2641 18.2218 9.5087 17.3465 9.5087 16.3122C9.5087 16.1257 9.58278 15.9469 9.71464 15.815C9.84651 15.6832 10.0253 15.6091 10.2118 15.6091C10.3983 15.6091 10.5772 15.6832 10.709 15.815C10.8409 15.9469 10.915 16.1257 10.915 16.3122C10.915 16.795 11.4012 17.1876 11.9989 17.1876C12.5966 17.1876 13.0829 16.7949 13.0829 16.3122C13.0829 15.7684 12.9107 15.6433 11.8541 15.4211C11.3506 15.3151 10.8299 15.2054 10.3833 14.9112C9.80294 14.5286 9.5087 13.9373 9.5087 13.1538C9.5087 12.1188 10.2641 11.243 11.2958 10.9641V10.6027C11.2958 10.4162 11.3699 10.2374 11.5018 10.1055C11.6336 9.97364 11.8125 9.89956 11.9989 9.89956C12.1854 9.89956 12.3643 9.97364 12.4961 10.1055C12.628 10.2374 12.7021 10.4162 12.7021 10.6027V10.964C13.7338 11.2429 14.4892 12.1187 14.4892 13.1537C14.4892 13.3401 14.4151 13.519 14.2832 13.6509C14.1514 13.7827 13.9725 13.8568 13.786 13.8568C13.5996 13.8568 13.4207 13.7827 13.2889 13.6509C13.157 13.519 13.0829 13.3401 13.0829 13.1537C13.0829 12.6702 12.5966 12.2771 11.9989 12.2771C11.4012 12.2771 10.915 12.6704 10.915 13.1537C10.9151 13.6977 11.0874 13.8226 12.1439 14.0449H12.1437Z" fill="#3447AA"/>
</svg>
