<svg width="24" height="24" viewBox="0 0 24 24" fill="none" xmlns="http://www.w3.org/2000/svg">
<path fill-rule="evenodd" clip-rule="evenodd" d="M20.479 7.57798L15.093 3.12498C14.2262 2.39821 13.1312 1.99988 12 1.99988C10.8688 1.99988 9.77379 2.39821 8.907 3.12498L3.521 7.57798C2.551 8.38098 2 9.59698 2 10.866V17.811C2 20.066 3.734 22 6 22H8C8.53043 22 9.03914 21.7893 9.41421 21.4142C9.78929 21.0391 10 20.5304 10 20V16.748C10 15.48 10.952 14.558 12 14.558C13.048 14.558 14 15.48 14 16.748V20C14 20.5304 14.2107 21.0391 14.5858 21.4142C14.9609 21.7893 15.4696 22 16 22H18C20.266 22 22 20.066 22 17.81V10.866C22 9.59698 21.45 8.38098 20.479 7.57798Z" fill="#707070"/>
</svg>
