<svg width="22" height="22" viewBox="0 0 22 22" fill="none" xmlns="http://www.w3.org/2000/svg">
<g clip-path="url(#clip0_833_1394)">
<path d="M8.06214 0H1.87804C0.842488 0 0 0.842488 0 1.87804V8.06214C0 9.09769 0.842488 9.94018 1.87804 9.94018H8.06214C9.09769 9.94018 9.94018 9.09769 9.94018 8.06214V1.87804C9.94018 0.842488 9.09769 0 8.06214 0ZM20.122 0H13.9379C12.9023 0 12.0598 0.842488 12.0598 1.87804V8.06214C12.0598 9.09769 12.9023 9.94018 13.9379 9.94018H20.122C21.1575 9.94018 22 9.09769 22 8.06214V1.87804C22 0.842488 21.1575 0 20.122 0ZM8.06214 12.0598H1.87804C0.842488 12.0598 0 12.9023 0 13.9379V20.122C0 21.1575 0.842488 22 1.87804 22H8.06214C9.09769 22 9.94018 21.1575 9.94018 20.122V13.9379C9.94018 12.9023 9.09769 12.0598 8.06214 12.0598ZM20.122 12.0598H13.9379C12.9023 12.0598 12.0598 12.9023 12.0598 13.9379V20.122C12.0598 21.1575 12.9023 22 13.9379 22H20.122C21.1575 22 22 21.1575 22 20.122V13.9379C22 12.9023 21.1575 12.0598 20.122 12.0598Z" fill="#707070"/>
</g>
<defs>
<clipPath id="clip0_833_1394">
<rect width="22" height="22" fill="white"/>
</clipPath>
</defs>
</svg>
