<svg width="14" height="14" viewBox="0 0 14 14" fill="none" xmlns="http://www.w3.org/2000/svg">
<g clip-path="url(#clip0_833_1795)">
<path d="M14 0.596231V9.65253C14 9.98181 13.733 10.2488 13.4038 10.2488C13.0745 10.2488 12.8075 9.98181 12.8075 9.65253V2.03577L1.01787 13.8254C0.901414 13.9418 0.748863 14 0.596258 14C0.443652 14 0.291102 13.9418 0.174645 13.8254C-0.0582148 13.5926 -0.0582148 13.215 0.174645 12.9822L11.9643 1.19246H4.34746C4.01819 1.19246 3.75123 0.925504 3.75123 0.596231C3.75123 0.266957 4.01819 2.10016e-09 4.34746 2.10016e-09H13.4038C13.733 -2.73417e-05 14 0.266957 14 0.596231Z" fill="#1C2A7D"/>
</g>
<defs>
<clipPath id="clip0_833_1795">
<rect width="14" height="14" fill="white"/>
</clipPath>
</defs>
</svg>
