<svg width="24" height="24" viewBox="0 0 24 24" fill="none" xmlns="http://www.w3.org/2000/svg">
<path d="M13.7611 2.60064C14.785 2.83281 15.7644 3.23595 16.6551 3.79174L18.0668 1.52944C16.9231 0.815672 15.6657 0.298165 14.3509 0L13.7611 2.60064Z" fill="#3447AA"/>
<path d="M8.11464 3.09087C8.608 2.88522 9.10799 2.72533 9.61011 2.60893L9.00792 0.0111485C8.36156 0.16098 7.71977 0.366399 7.08862 0.62949C6.45748 0.892581 5.8598 1.20383 5.29839 1.55745L6.71964 3.81381C7.15576 3.53911 7.62128 3.29653 8.11464 3.09087Z" fill="#3447AA"/>
<path d="M19.5976 6.71964C19.8723 7.15576 20.1149 7.62128 20.3205 8.11464C20.5262 8.608 20.6861 9.10799 20.8025 9.61011L23.4003 9.00792C23.2504 8.36156 23.045 7.71977 22.7819 7.08862C22.5188 6.45748 22.2076 5.8598 21.854 5.29839L19.5976 6.71964Z" fill="#3447AA"/>
<path d="M2.60064 9.65028C2.83281 8.62646 3.23595 7.64697 3.79174 6.75634L1.52944 5.34457C0.815672 6.48835 0.298165 7.7457 0 9.06053L2.60064 9.65028Z" fill="#3447AA"/>
<path d="M20.8108 13.7611C20.5786 14.785 20.1755 15.7644 19.6197 16.6551L21.882 18.0668C22.5957 16.9231 23.1132 15.6657 23.4114 14.3509L20.8108 13.7611Z" fill="#3447AA"/>
<path d="M3.09087 15.2968C2.88522 14.8034 2.72533 14.3034 2.60893 13.8013L0.0111486 14.4035C0.16098 15.0499 0.366399 15.6916 0.62949 16.3228C0.892581 16.9539 1.20383 17.5516 1.55745 18.113L3.81381 16.6918C3.53911 16.2556 3.29653 15.7901 3.09087 15.2968Z" fill="#3447AA"/>
<path d="M16.6918 19.5976C16.2556 19.8723 15.7901 20.1149 15.2968 20.3205C14.8034 20.5262 14.3034 20.6861 13.8013 20.8025L14.4035 23.4003C15.0499 23.2504 15.6916 23.045 16.3228 22.7819C16.9539 22.5188 17.5516 22.2076 18.113 21.854L16.6918 19.5976Z" fill="#3447AA"/>
<path d="M9.65028 20.8108C8.62646 20.5786 7.64697 20.1755 6.75634 19.6197L5.34457 21.882C6.48835 22.5957 7.7457 23.1132 9.06053 23.4114L9.65028 20.8108Z" fill="#3447AA"/>
<path fill-rule="evenodd" clip-rule="evenodd" d="M10.4408 3.28407L8.65162 8.65161L3.28408 10.4408V12.9706L8.65162 14.7598L10.4408 20.1273H12.9706L14.7598 14.7598L20.1274 12.9706V10.4408L14.7598 8.65161L12.9706 3.28407H10.4408ZM10.9706 10.1273L11.7057 7.92207L12.4408 10.1273L13.2841 10.9706L15.4893 11.7057L13.2841 12.4408L12.4408 13.2841L11.7057 15.4893L10.9706 13.2841L10.1274 12.4408L7.92208 11.7057L10.1274 10.9706L10.9706 10.1273Z" fill="#3447AA"/>
</svg>
