<svg width="22" height="21" viewBox="0 0 22 21" fill="none" xmlns="http://www.w3.org/2000/svg">
<path d="M16.8577 3.12241C16.8672 3.12308 16.8768 3.12375 16.8865 3.12375C16.9031 3.12375 16.9196 3.12241 16.9358 3.12014C17.369 3.12905 17.7157 3.48232 17.7162 3.91548C17.7162 4.01001 17.7537 4.10067 17.8206 4.16751C17.8874 4.23436 17.9781 4.27191 18.0726 4.27191C18.1672 4.27191 18.2578 4.23436 18.3247 4.16751C18.3915 4.10067 18.4291 4.01001 18.4291 3.91548C18.4282 3.20698 17.935 2.594 17.243 2.44154V2.09905C17.243 2.00452 17.2054 1.91386 17.1386 1.84701C17.0717 1.78017 16.9811 1.74261 16.8865 1.74261C16.792 1.74261 16.7014 1.78017 16.6345 1.84701C16.5677 1.91386 16.5301 2.00452 16.5301 2.09905V2.45771C15.7984 2.65335 15.3251 3.36118 15.4237 4.11214C15.5224 4.86314 16.1625 5.42461 16.92 5.42461C17.3598 5.42461 17.7162 5.78118 17.7162 6.22102C17.7162 6.66064 17.3598 7.0172 16.92 7.0172C16.4802 7.0172 16.1237 6.66064 16.1237 6.22102C16.1237 6.12649 16.0862 6.03583 16.0193 5.96898C15.9525 5.90214 15.8618 5.86459 15.7673 5.86459C15.6728 5.86459 15.5821 5.90214 15.5153 5.96898C15.4484 6.03583 15.4109 6.12649 15.4109 6.22102C15.4118 6.90395 15.8705 7.50142 16.5301 7.67874V8.06931C16.5301 8.16384 16.5677 8.2545 16.6345 8.32134C16.7014 8.38819 16.792 8.42574 16.8865 8.42574C16.9811 8.42574 17.0717 8.38819 17.1386 8.32134C17.2054 8.2545 17.243 8.16384 17.243 8.06931V7.6951C17.9957 7.53029 18.5034 6.82473 18.4204 6.05862C18.3375 5.29251 17.6906 4.71188 16.92 4.71206C16.4923 4.71224 16.141 4.37461 16.1241 3.94733C16.1074 3.52006 16.4312 3.15583 16.8577 3.12259V3.12241Z" fill="#3447AA"/>
<path d="M16.9398 0C14.7471 0 12.8758 1.43081 12.1748 3.34664H3.32824C3.13229 3.34664 2.97319 3.5233 2.97181 3.71911L2.8876 16.2228H0.365834C0.168994 16.2228 0 16.3654 0 16.5625V18.1492C0.00454452 19.643 1.18104 20.8702 2.67325 20.9377V20.9455H13.6781V20.9351C13.7672 20.9384 13.8039 20.9455 13.8604 20.9455H13.868C15.4124 20.9431 16.6633 19.6904 16.6633 18.1459V10.1234C16.7524 10.1283 16.8467 10.1309 16.939 10.1309C19.7293 10.1309 22 7.85584 22 5.06527C22 2.27494 19.7304 4.45549e-05 16.9398 4.45549e-05V0ZM2.80887 20.2327H2.80664C1.65358 20.2312 0.718124 19.2988 0.712911 18.1456V16.9357H11.0495V18.1406C11.0498 18.5089 11.1228 18.8736 11.2644 19.2136C11.4061 19.5536 11.6135 19.8623 11.8748 20.1219C11.9122 20.1593 11.9586 20.1882 11.9978 20.2327H2.80887ZM15.9504 18.1456C15.9506 19.2967 15.0186 20.2304 13.8677 20.2327H13.8609C12.7053 20.2306 11.7681 19.2963 11.7623 18.1409V16.5626C11.7638 16.5175 11.7561 16.4726 11.7395 16.4307C11.7229 16.3888 11.6979 16.3507 11.666 16.3188C11.6341 16.287 11.596 16.262 11.554 16.2455C11.512 16.229 11.4671 16.2213 11.4221 16.2228H3.60047L3.68227 4.05955H11.977C11.9138 4.38579 11.8811 4.71721 11.8793 5.0495C11.8786 5.75199 12.0252 6.44683 12.3096 7.08919H8.94296C8.74594 7.08919 8.58652 7.24883 8.58652 7.44563C8.58652 7.64251 8.74594 7.80206 8.94296 7.80206H12.6963C13.0602 8.37429 13.5361 8.86702 14.0953 9.25063C14.6545 9.63424 15.2856 9.90081 15.9504 10.0343V18.1456ZM16.9398 9.41817C14.5388 9.41817 12.5922 7.47173 12.5923 5.07049C12.5923 2.66928 14.5388 0.722802 16.94 0.722802C19.3411 0.722802 21.2875 2.66946 21.2875 5.07049C21.2849 7.47049 19.3401 9.41559 16.9398 9.41817Z" fill="#3447AA"/>
<path d="M6.65582 9.46128C6.02672 9.46128 5.51501 9.95677 5.51501 10.5659C5.51501 11.1751 6.02667 11.6705 6.65582 11.6705C7.28497 11.6705 7.79686 11.1751 7.79686 10.5659C7.79686 9.95677 7.28497 9.46128 6.65582 9.46128ZM6.65582 10.9577C6.41969 10.9577 6.22788 10.7819 6.22788 10.5659C6.22788 10.3498 6.41982 10.1742 6.65582 10.1742C6.89183 10.1742 7.08399 10.3499 7.08399 10.5659C7.08399 10.7819 6.89183 10.9577 6.65582 10.9577ZM8.58734 10.5644C8.58734 10.7612 8.74675 10.9208 8.94377 10.9208H13.6957C13.7903 10.9208 13.8809 10.8832 13.9478 10.8164C14.0146 10.7495 14.0522 10.6589 14.0522 10.5644C14.0522 10.4698 14.0146 10.3792 13.9478 10.3123C13.8809 10.2455 13.7903 10.2079 13.6957 10.2079H8.94377C8.74675 10.2079 8.58734 10.3675 8.58734 10.5644ZM6.65582 6.36285C6.02672 6.36285 5.51501 6.85852 5.51501 7.46766C5.51501 8.07681 6.02667 8.57229 6.65582 8.57229C7.28497 8.57229 7.79686 8.07681 7.79686 7.46766C7.79686 6.85852 7.28497 6.36285 6.65582 6.36285ZM6.65582 7.85943C6.41969 7.85943 6.22788 7.68366 6.22788 7.46766C6.22788 7.25166 6.41982 7.07572 6.65582 7.07572C6.89183 7.07572 7.08399 7.25149 7.08399 7.46766C7.08399 7.68366 6.89183 7.85961 6.65582 7.85961V7.85943ZM6.65582 12.5594C6.02672 12.5594 5.51501 13.0548 5.51501 13.664C5.51501 14.2731 6.02667 14.7686 6.65582 14.7686C7.28497 14.7686 7.79686 14.2732 7.79686 13.664C7.79686 13.0548 7.28497 12.5594 6.65582 12.5594ZM6.65582 14.0558C6.41969 14.0558 6.22788 13.8802 6.22788 13.664C6.22788 13.448 6.41982 13.2722 6.65582 13.2722C6.89183 13.2722 7.08399 13.448 7.08399 13.664C7.08399 13.88 6.89183 14.0558 6.65582 14.0558ZM13.6957 13.3267H8.94377C8.74675 13.3267 8.58734 13.4863 8.58734 13.6831C8.58734 13.88 8.74675 14.0396 8.94377 14.0396H13.6957C13.7903 14.0396 13.8809 14.002 13.9478 13.9352C14.0146 13.8683 14.0522 13.7777 14.0522 13.6831C14.0522 13.5886 14.0146 13.498 13.9478 13.4311C13.8809 13.3643 13.7903 13.3267 13.6957 13.3267Z" fill="#3447AA"/>
</svg>
