<svg width="14" height="14" viewBox="0 0 14 14" fill="none" xmlns="http://www.w3.org/2000/svg">
<path d="M4.37516 1.45833C4.37516 1.13617 4.114 0.875 3.79183 0.875C3.46966 0.875 3.2085 1.13617 3.2085 1.45833V2.04167C3.2085 2.36383 3.46966 2.625 3.79183 2.625C4.114 2.625 4.37516 2.36383 4.37516 2.04167V1.45833Z" fill="#AEAEAE"/>
<path d="M10.7917 1.45833C10.7917 1.13617 10.5305 0.875 10.2083 0.875C9.88617 0.875 9.625 1.13617 9.625 1.45833V2.04167C9.625 2.36383 9.88617 2.625 10.2083 2.625C10.5305 2.625 10.7917 2.36383 10.7917 2.04167V1.45833Z" fill="#AEAEAE"/>
<path d="M1.16675 5.25V11.9583C1.16675 12.2678 1.28966 12.5645 1.50846 12.7833C1.72725 13.0021 2.024 13.125 2.33341 13.125H11.6667C11.9762 13.125 12.2729 13.0021 12.4917 12.7833C12.7105 12.5645 12.8334 12.2678 12.8334 11.9583V5.25H1.16675ZM4.66675 11.0833C4.66675 11.238 4.60529 11.3864 4.49589 11.4958C4.3865 11.6052 4.23812 11.6667 4.08342 11.6667H3.50008C3.34537 11.6667 3.197 11.6052 3.0876 11.4958C2.97821 11.3864 2.91675 11.238 2.91675 11.0833V10.5C2.91675 10.3453 2.97821 10.1969 3.0876 10.0875C3.197 9.97812 3.34537 9.91667 3.50008 9.91667H4.08342C4.23812 9.91667 4.3865 9.97812 4.49589 10.0875C4.60529 10.1969 4.66675 10.3453 4.66675 10.5V11.0833ZM4.66675 7.875C4.66675 8.02971 4.60529 8.17808 4.49589 8.28748C4.3865 8.39687 4.23812 8.45833 4.08342 8.45833H3.50008C3.34537 8.45833 3.197 8.39687 3.0876 8.28748C2.97821 8.17808 2.91675 8.02971 2.91675 7.875V7.29167C2.91675 7.13696 2.97821 6.98858 3.0876 6.87919C3.197 6.76979 3.34537 6.70833 3.50008 6.70833H4.08342C4.23812 6.70833 4.3865 6.76979 4.49589 6.87919C4.60529 6.98858 4.66675 7.13696 4.66675 7.29167V7.875ZM7.87508 11.0833C7.87508 11.238 7.81362 11.3864 7.70423 11.4958C7.59483 11.6052 7.44646 11.6667 7.29175 11.6667H6.70842C6.55371 11.6667 6.40533 11.6052 6.29594 11.4958C6.18654 11.3864 6.12508 11.238 6.12508 11.0833V10.5C6.12508 10.3453 6.18654 10.1969 6.29594 10.0875C6.40533 9.97812 6.55371 9.91667 6.70842 9.91667H7.29175C7.44646 9.91667 7.59483 9.97812 7.70423 10.0875C7.81362 10.1969 7.87508 10.3453 7.87508 10.5V11.0833ZM7.87508 7.875C7.87508 8.02971 7.81362 8.17808 7.70423 8.28748C7.59483 8.39687 7.44646 8.45833 7.29175 8.45833H6.70842C6.55371 8.45833 6.40533 8.39687 6.29594 8.28748C6.18654 8.17808 6.12508 8.02971 6.12508 7.875V7.29167C6.12508 7.13696 6.18654 6.98858 6.29594 6.87919C6.40533 6.76979 6.55371 6.70833 6.70842 6.70833H7.29175C7.44646 6.70833 7.59483 6.76979 7.70423 6.87919C7.81362 6.98858 7.87508 7.13696 7.87508 7.29167V7.875ZM11.0834 11.0833C11.0834 11.238 11.022 11.3864 10.9126 11.4958C10.8032 11.6052 10.6548 11.6667 10.5001 11.6667H9.91675C9.76204 11.6667 9.61367 11.6052 9.50427 11.4958C9.39487 11.3864 9.33342 11.238 9.33342 11.0833V10.5C9.33342 10.3453 9.39487 10.1969 9.50427 10.0875C9.61367 9.97812 9.76204 9.91667 9.91675 9.91667H10.5001C10.6548 9.91667 10.8032 9.97812 10.9126 10.0875C11.022 10.1969 11.0834 10.3453 11.0834 10.5V11.0833ZM11.0834 7.875C11.0834 8.02971 11.022 8.17808 10.9126 8.28748C10.8032 8.39687 10.6548 8.45833 10.5001 8.45833H9.91675C9.76204 8.45833 9.61367 8.39687 9.50427 8.28748C9.39487 8.17808 9.33342 8.02971 9.33342 7.875V7.29167C9.33342 7.13696 9.39487 6.98858 9.50427 6.87919C9.61367 6.76979 9.76204 6.70833 9.91675 6.70833H10.5001C10.6548 6.70833 10.8032 6.76979 10.9126 6.87919C11.022 6.98858 11.0834 7.13696 11.0834 7.29167V7.875ZM12.8334 4.66667V2.91667C12.8334 2.60725 12.7105 2.3105 12.4917 2.09171C12.2729 1.87292 11.9762 1.75 11.6667 1.75H11.3751V2.04167C11.3751 2.68508 10.8518 3.20833 10.2084 3.20833C9.565 3.20833 9.04175 2.68508 9.04175 2.04167V1.75H4.95842V2.04167C4.95842 2.68508 4.43516 3.20833 3.79175 3.20833C3.14833 3.20833 2.62508 2.68508 2.62508 2.04167V1.75H2.33341C2.024 1.75 1.72725 1.87292 1.50846 2.09171C1.28966 2.3105 1.16675 2.60725 1.16675 2.91667V4.66667H12.8334Z" fill="#AEAEAE"/>
</svg>
