<svg width="22" height="22" viewBox="0 0 22 22" fill="none" xmlns="http://www.w3.org/2000/svg">
<path fill-rule="evenodd" clip-rule="evenodd" d="M15.9974 3.80167C18.9328 3.80167 21.3125 6.18133 21.3125 9.11678C21.3125 12.0522 18.9328 14.4318 15.9974 14.4318C15.445 14.4318 14.9124 14.3475 14.4115 14.1911C14.3458 13.7122 14.2233 13.2355 14.0461 12.7682C14.6275 13.0796 15.2918 13.2563 15.9974 13.2563C18.2836 13.2563 20.137 11.4029 20.137 9.11674C20.137 6.83058 18.2836 4.97717 15.9974 4.97717C13.7113 4.97717 11.8578 6.83058 11.8578 9.11674C11.8578 9.17797 11.8594 9.23881 11.8621 9.2994C11.5154 8.86795 11.1552 8.44625 10.7923 8.03667C11.2913 5.61917 13.4321 3.80167 15.9974 3.80167ZM9.85581 8.02481C9.70428 8.06959 9.54708 8.09228 9.38908 8.09219H5.08236C4.92037 8.09219 4.76375 8.06856 4.61564 8.02481C3.21915 9.56765 2.18013 10.9036 1.49881 12.0998C-0.965744 16.4273 2.54029 20.8225 7.23574 20.7433C11.9312 20.8225 15.4373 16.4273 12.9727 12.0998C12.2913 10.9036 11.2523 9.56765 9.85581 8.02481ZM5.14742 4.78656L4.25436 3.89354C3.86854 3.50772 3.86854 2.87638 4.25436 2.49061C4.58251 2.16246 5.10192 2.10703 5.49242 2.35767C5.63748 2.45074 5.80402 2.4656 5.96318 2.39969C6.12238 2.33373 6.22963 2.20556 6.26637 2.03712C6.36361 1.59183 6.76231 1.25573 7.23574 1.25565C7.70062 1.25565 8.10612 1.58333 8.2052 2.03712C8.24194 2.20556 8.34924 2.33373 8.50839 2.39969C8.66759 2.46565 8.83414 2.45069 8.97907 2.35767C9.36944 2.10711 9.88898 2.16254 10.2171 2.49061C10.6029 2.87643 10.6029 3.50772 10.2171 3.89354L9.32411 4.78656H5.14742ZM7.47938 16.2825C7.94787 16.2257 8.56361 15.9888 8.5502 15.4249C8.54906 15.3955 8.54657 15.3663 8.54272 15.3372C8.4622 14.6738 7.72215 14.4848 7.16699 14.3937C6.30431 14.2521 5.42182 13.86 5.37339 12.8616C5.32965 11.9612 6.03232 11.3331 6.87352 11.1941V10.7688C6.87352 10.6776 6.90973 10.5902 6.9742 10.5257C7.03866 10.4613 7.1261 10.425 7.21727 10.425C7.30844 10.425 7.39587 10.4613 7.46034 10.5257C7.5248 10.5902 7.56102 10.6776 7.56102 10.7688V11.1887C8.24676 11.2927 8.80122 11.7096 9.07193 12.3544C9.10529 12.4381 9.10445 12.5316 9.06961 12.6146C9.03476 12.6977 8.96869 12.7638 8.88562 12.7986C8.80254 12.8335 8.7091 12.8343 8.62541 12.801C8.54172 12.7676 8.47447 12.7028 8.43814 12.6203C8.26893 12.2172 7.94735 11.9846 7.59415 11.895C6.94613 11.7308 6.01999 12.043 6.05819 12.8295C6.08805 13.4449 6.77387 13.6344 7.27708 13.717C8.17659 13.8647 9.09986 14.2271 9.22481 15.2566C9.23063 15.3072 9.23401 15.358 9.23495 15.4088C9.2576 16.3599 8.40454 16.8618 7.56102 16.9646V17.3795C7.56102 17.4247 7.55213 17.4694 7.53486 17.5111C7.51759 17.5528 7.49227 17.5907 7.46035 17.6226C7.39589 17.6871 7.30846 17.7233 7.21729 17.7233C7.17215 17.7233 7.12745 17.7144 7.08574 17.6972C7.04403 17.6799 7.00614 17.6546 6.97421 17.6226C6.90974 17.5582 6.87352 17.4708 6.87352 17.3796V16.9584C6.08418 16.8452 5.40811 16.3614 5.20856 15.5611C5.18725 15.473 5.20175 15.3799 5.24887 15.3024C5.296 15.2249 5.37191 15.1692 5.46 15.1476C5.54809 15.1259 5.64117 15.14 5.71887 15.1868C5.79658 15.2337 5.85256 15.3093 5.87458 15.3974C5.94565 15.6824 6.11542 15.8991 6.33753 16.047C6.67371 16.2708 7.08591 16.3303 7.47938 16.2825ZM5.08236 7.40473H9.38908C9.92009 7.40473 10.3545 6.97032 10.3545 6.43944C10.3545 5.90843 9.92009 5.47406 9.38908 5.47406H5.08236C4.55136 5.47406 4.11703 5.90843 4.11703 6.43935C4.11703 6.97032 4.5514 7.40473 5.08236 7.40473ZM12.7015 9.46049H13.0588C13.15 9.46049 13.2374 9.42427 13.3019 9.3598C13.3664 9.29534 13.4026 9.2079 13.4026 9.11674C13.4026 9.02557 13.3664 8.93813 13.3019 8.87367C13.2374 8.8092 13.15 8.77299 13.0588 8.77299H12.7015C12.6104 8.77299 12.5229 8.8092 12.4585 8.87367C12.394 8.93813 12.3578 9.02557 12.3578 9.11674C12.3578 9.2079 12.394 9.29534 12.4585 9.3598C12.5229 9.42427 12.6104 9.46049 12.7015 9.46049ZM16.3411 12.4127V12.0554C16.3411 11.9642 16.3049 11.8768 16.2404 11.8123C16.176 11.7478 16.0885 11.7116 15.9974 11.7116C15.9062 11.7116 15.8188 11.7478 15.7543 11.8123C15.6898 11.8768 15.6536 11.9642 15.6536 12.0554V12.4127C15.6536 12.5038 15.6898 12.5913 15.7543 12.6557C15.8188 12.7202 15.9062 12.7564 15.9974 12.7564C16.0885 12.7564 16.176 12.7202 16.2404 12.6557C16.3049 12.5913 16.3411 12.5038 16.3411 12.4127ZM19.2933 8.77303H18.936C18.8448 8.77303 18.7574 8.80925 18.6929 8.87371C18.6285 8.93818 18.5923 9.02561 18.5923 9.11678C18.5923 9.20795 18.6285 9.29538 18.6929 9.35985C18.7574 9.42431 18.8448 9.46053 18.936 9.46053H19.2933C19.3845 9.46053 19.4719 9.42431 19.5364 9.35985C19.6008 9.29538 19.637 9.20795 19.637 9.11678C19.637 9.02561 19.6008 8.93818 19.5364 8.87371C19.4719 8.80925 19.3845 8.77303 19.2933 8.77303ZM13.4238 7.02927L13.6764 7.28188C13.7083 7.3138 13.7462 7.33912 13.7879 7.3564C13.8296 7.37367 13.8743 7.38257 13.9194 7.38257C13.9646 7.38257 14.0093 7.37367 14.051 7.3564C14.0927 7.33912 14.1306 7.3138 14.1625 7.28188C14.1944 7.24997 14.2197 7.21208 14.237 7.17038C14.2543 7.12868 14.2632 7.08399 14.2632 7.03885C14.2632 6.99372 14.2543 6.94902 14.237 6.90732C14.2197 6.86562 14.1944 6.82773 14.1625 6.79582L13.9099 6.54321C13.878 6.51129 13.8401 6.48597 13.7984 6.46869C13.7567 6.45142 13.712 6.44253 13.6668 6.44253C13.6217 6.44253 13.577 6.45142 13.5353 6.46869C13.4936 6.48597 13.4557 6.51129 13.4238 6.54321C13.3919 6.57512 13.3666 6.61301 13.3493 6.65471C13.332 6.69641 13.3231 6.7411 13.3231 6.78624C13.3231 6.83138 13.332 6.87607 13.3493 6.91777C13.3666 6.95947 13.3919 6.99736 13.4238 7.02927ZM13.9099 11.6903L14.1625 11.4377C14.1944 11.4058 14.2198 11.3679 14.237 11.3262C14.2543 11.2845 14.2632 11.2398 14.2632 11.1947C14.2632 11.1496 14.2543 11.1049 14.237 11.0632C14.2198 11.0215 14.1944 10.9836 14.1625 10.9517C14.1306 10.9198 14.0927 10.8944 14.051 10.8772C14.0093 10.8599 13.9646 10.851 13.9195 10.851C13.8744 10.851 13.8297 10.8599 13.788 10.8772C13.7463 10.8944 13.7084 10.9198 13.6765 10.9517L13.4238 11.2043C13.3804 11.2476 13.3495 11.3017 13.3342 11.361C13.4193 11.4993 13.5018 11.639 13.5817 11.7803C13.6395 11.7951 13.7002 11.7946 13.7577 11.7788C13.8153 11.7631 13.8677 11.7326 13.9099 11.6903ZM18.571 11.2042L18.3184 10.9516C18.2865 10.9197 18.2486 10.8944 18.2069 10.8771C18.1652 10.8598 18.1205 10.8509 18.0753 10.8509C18.0302 10.8509 17.9855 10.8598 17.9438 10.8771C17.9021 10.8944 17.8642 10.9197 17.8323 10.9516C17.8004 10.9835 17.7751 11.0214 17.7578 11.0631C17.7405 11.1048 17.7316 11.1495 17.7316 11.1947C17.7316 11.2398 17.7405 11.2845 17.7578 11.3262C17.7751 11.3679 17.8004 11.4058 17.8323 11.4377L18.0849 11.6903C18.1168 11.7222 18.1547 11.7475 18.1964 11.7648C18.2381 11.7821 18.2828 11.791 18.328 11.791C18.3731 11.791 18.4178 11.7821 18.4595 11.7648C18.5012 11.7475 18.5391 11.7222 18.571 11.6903C18.6029 11.6584 18.6282 11.6205 18.6455 11.5788C18.6628 11.5371 18.6717 11.4924 18.6717 11.4473C18.6717 11.4021 18.6628 11.3574 18.6455 11.3157C18.6282 11.274 18.6029 11.2362 18.571 11.2042ZM18.0849 6.54317L17.8323 6.79578C17.8003 6.82769 17.775 6.86558 17.7578 6.90728C17.7405 6.94898 17.7316 6.99367 17.7316 7.03881C17.7316 7.08395 17.7405 7.12864 17.7578 7.17034C17.775 7.21204 17.8003 7.24993 17.8323 7.28184C17.8642 7.31376 17.9021 7.33908 17.9438 7.35636C17.9855 7.37363 18.0302 7.38252 18.0753 7.38252C18.1204 7.38252 18.1651 7.37363 18.2068 7.35636C18.2485 7.33908 18.2864 7.31376 18.3183 7.28184L18.5709 7.02923C18.6029 6.99731 18.6282 6.95942 18.6454 6.91772C18.6627 6.87602 18.6716 6.83133 18.6716 6.7862C18.6716 6.74106 18.6627 6.69637 18.6454 6.65467C18.6282 6.61297 18.6029 6.57508 18.5709 6.54317C18.539 6.51125 18.5011 6.48593 18.4594 6.46866C18.4177 6.45139 18.373 6.4425 18.3279 6.4425C18.2828 6.4425 18.2381 6.45139 18.1964 6.46866C18.1547 6.48593 18.1168 6.51125 18.0849 6.54317ZM15.6536 5.8209V6.17819C15.6536 6.26936 15.6898 6.35679 15.7543 6.42126C15.8188 6.48572 15.9062 6.52194 15.9974 6.52194C16.0885 6.52194 16.176 6.48572 16.2404 6.42126C16.3049 6.35679 16.3411 6.26936 16.3411 6.17819V5.8209C16.3411 5.72974 16.3049 5.6423 16.2404 5.57784C16.176 5.51337 16.0885 5.47715 15.9974 5.47715C15.9062 5.47715 15.8188 5.51337 15.7543 5.57784C15.6898 5.6423 15.6536 5.72974 15.6536 5.8209ZM15.6536 7.55057V9.11674C15.6536 9.18262 15.6725 9.24712 15.7081 9.30256C15.7437 9.35799 15.7945 9.40203 15.8545 9.42942L16.8725 10.0172C16.9511 10.0612 17.044 10.0724 17.1308 10.0484C17.2176 10.0244 17.2915 9.96711 17.3364 9.88899C17.3813 9.81087 17.3936 9.71821 17.3706 9.63109C17.3476 9.54398 17.2912 9.46945 17.2136 9.42366L16.3411 8.91994V7.55052C16.3416 7.50506 16.3331 7.45995 16.316 7.4178C16.299 7.37566 16.2737 7.33731 16.2418 7.30498C16.2098 7.27266 16.1717 7.24699 16.1298 7.22948C16.0878 7.21197 16.0428 7.20295 15.9973 7.20295C15.9519 7.20296 15.9068 7.21198 15.8649 7.2295C15.8229 7.24702 15.7849 7.27268 15.7529 7.30501C15.7209 7.33734 15.6957 7.37569 15.6787 7.41784C15.6616 7.45999 15.6531 7.50511 15.6536 7.55057Z" fill="#686FFF"/>
</svg>
