<svg width="14" height="15" viewBox="0 0 14 15" fill="none" xmlns="http://www.w3.org/2000/svg">
<path d="M5.6 2.88129H8.4C8.4 2.49921 8.2525 2.13277 7.98995 1.8626C7.7274 1.59243 7.3713 1.44065 7 1.44065C6.6287 1.44065 6.2726 1.59243 6.01005 1.8626C5.7475 2.13277 5.6 2.49921 5.6 2.88129ZM4.2 2.88129C4.2 2.11712 4.495 1.38426 5.0201 0.84391C5.5452 0.303564 6.25739 0 7 0C7.74261 0 8.4548 0.303564 8.9799 0.84391C9.505 1.38426 9.8 2.11712 9.8 2.88129H13.3C13.4857 2.88129 13.6637 2.95718 13.795 3.09227C13.9263 3.22735 14 3.41057 14 3.60161C14 3.79265 13.9263 3.97587 13.795 4.11096C13.6637 4.24604 13.4857 4.32194 13.3 4.32194H12.6826L12.0624 11.7701C12.0028 12.4893 11.683 13.1593 11.1663 13.6475C10.6496 14.1357 9.97366 14.4065 9.2722 14.4065H4.7278C4.02634 14.4065 3.35039 14.1357 2.8337 13.6475C2.31702 13.1593 1.99722 12.4893 1.9376 11.7701L1.3174 4.32194H0.7C0.514348 4.32194 0.336301 4.24604 0.205025 4.11096C0.0737498 3.97587 0 3.79265 0 3.60161C0 3.41057 0.0737498 3.22735 0.205025 3.09227C0.336301 2.95718 0.514348 2.88129 0.7 2.88129H4.2ZM9.1 7.20323C9.1 7.01218 9.02625 6.82897 8.89497 6.69388C8.7637 6.55879 8.58565 6.4829 8.4 6.4829C8.21435 6.4829 8.0363 6.55879 7.90503 6.69388C7.77375 6.82897 7.7 7.01218 7.7 7.20323V10.0845C7.7 10.2756 7.77375 10.4588 7.90503 10.5939C8.0363 10.7289 8.21435 10.8048 8.4 10.8048C8.58565 10.8048 8.7637 10.7289 8.89497 10.5939C9.02625 10.4588 9.1 10.2756 9.1 10.0845V7.20323ZM5.6 6.4829C5.41435 6.4829 5.2363 6.55879 5.10503 6.69388C4.97375 6.82897 4.9 7.01218 4.9 7.20323V10.0845C4.9 10.2756 4.97375 10.4588 5.10503 10.5939C5.2363 10.7289 5.41435 10.8048 5.6 10.8048C5.78565 10.8048 5.9637 10.7289 6.09497 10.5939C6.22625 10.4588 6.3 10.2756 6.3 10.0845V7.20323C6.3 7.01218 6.22625 6.82897 6.09497 6.69388C5.9637 6.55879 5.78565 6.4829 5.6 6.4829Z" fill="#FF5050"/>
</svg>
