<svg width="14" height="14" viewBox="0 0 14 14" fill="none" xmlns="http://www.w3.org/2000/svg">
<path d="M0.847816 9.30853L0.0206984 12.8782C-0.00783439 13.0087 -0.00685626 13.1439 0.0235612 13.274C0.0539787 13.404 0.113067 13.5257 0.19651 13.63C0.279953 13.7343 0.385643 13.8186 0.505858 13.8768C0.626073 13.9351 0.757778 13.9657 0.891349 13.9665C0.953588 13.9728 1.0163 13.9728 1.07854 13.9665L4.66997 13.1394L11.5655 6.26996L7.71725 2.43039L0.847816 9.30853Z" fill="#707070"/>
<path d="M13.7333 2.83074L11.1648 0.262322C10.996 0.0943142 10.7675 0 10.5293 0C10.2911 0 10.0625 0.0943142 9.89369 0.262322L8.46582 1.69019L12.3097 5.53411L13.7376 4.10624C13.8212 4.02226 13.8873 3.92262 13.9324 3.81304C13.9774 3.70345 14.0003 3.58606 13.9999 3.46759C13.9995 3.34912 13.9758 3.23189 13.93 3.12261C13.8842 3.01333 13.8174 2.91415 13.7333 2.83074Z" fill="#707070"/>
</svg>
