<svg width="20" height="20" viewBox="0 0 20 20" fill="none" xmlns="http://www.w3.org/2000/svg">
<g clip-path="url(#clip0_833_1326)">
<path d="M4.59375 15.0938H2.1875C2 15.0938 1.875 15.2188 1.875 15.4062V17.8125C1.875 18 2 18.125 2.1875 18.125H4.59375C4.78125 18.125 4.90625 18 4.90625 17.8125V15.4062C4.90625 15.25 4.75 15.0938 4.59375 15.0938ZM4.28125 17.5H2.5V15.7188H4.28125V17.5ZM4.59375 10.0938H2.1875C2 10.0938 1.875 10.2188 1.875 10.4062V12.8125C1.875 13 2 13.125 2.1875 13.125H4.59375C4.78125 13.125 4.90625 13 4.90625 12.8125V10.4062C4.90625 10.2188 4.75 10.0938 4.59375 10.0938ZM4.28125 12.5H2.5V10.7188H4.28125V12.5ZM4.59375 5.0625H2.1875C2 5.0625 1.875 5.1875 1.875 5.375V7.78125C1.875 7.96875 2 8.09375 2.1875 8.09375H4.59375C4.78125 8.09375 4.90625 7.96875 4.90625 7.78125V5.375C4.90625 5.21875 4.75 5.0625 4.59375 5.0625ZM4.28125 7.46875H2.5V5.6875H4.28125V7.46875ZM6.15625 5.75C6.15625 5.9375 6.28125 6.0625 6.46875 6.0625H9.90625C10.0938 6.0625 10.2188 5.9375 10.2188 5.75C10.2188 5.5625 10.0938 5.4375 9.90625 5.4375H6.46875C6.28125 5.4375 6.15625 5.59375 6.15625 5.75ZM6.15625 7.40625C6.15625 7.59375 6.28125 7.71875 6.46875 7.71875H13.0938C13.2813 7.71875 13.4062 7.59375 13.4062 7.40625C13.4062 7.21875 13.2813 7.09375 13.0938 7.09375H6.46875C6.28125 7.09375 6.15625 7.21875 6.15625 7.40625ZM9.90625 10.4688H6.46875C6.28125 10.4688 6.15625 10.5938 6.15625 10.7812C6.15625 10.9688 6.28125 11.0938 6.46875 11.0938H9.90625C10.0938 11.0938 10.2188 10.9688 10.2188 10.7812C10.2188 10.5938 10.0625 10.4688 9.90625 10.4688ZM6.46875 16.0938H9.90625C10.0938 16.0938 10.2188 15.9688 10.2188 15.7812C10.2188 15.5938 10.0938 15.4688 9.90625 15.4688H6.46875C6.28125 15.4688 6.15625 15.5938 6.15625 15.7812C6.15625 15.9688 6.28125 16.0938 6.46875 16.0938ZM2.1875 3.15625H7.28125C7.46875 3.15625 7.59375 3.03125 7.59375 2.84375C7.59375 2.65625 7.46875 2.53125 7.28125 2.53125H2.1875C2 2.53125 1.875 2.65625 1.875 2.84375C1.875 3.03125 2 3.15625 2.1875 3.15625ZM19.7188 7L18.4688 6C18.1562 5.75 17.7188 5.8125 17.4688 6.125L15.2812 8.90625V4.03125C15.2812 3.9375 15.25 3.875 15.1875 3.8125L11.4688 0.09375C11.4062 0.03125 11.3125 0 11.25 0H1.5625C0.6875 0 0 0.6875 0 1.5625V18.4375C0 19.3125 0.6875 20 1.5625 20H13.7188C14.5938 20 15.2812 19.3125 15.2812 18.4375V13.8125L19.8438 8C19.9688 7.84375 20 7.65625 20 7.46875C20 7.28125 19.875 7.125 19.7188 7ZM11.5625 1.0625L14.2188 3.71875H11.875C11.6875 3.71875 11.5625 3.59375 11.5625 3.40625V1.0625ZM14.6562 18.4375C14.6562 18.9688 14.25 19.375 13.7188 19.375H1.5625C1.03125 19.375 0.625 18.9688 0.625 18.4375V1.5625C0.625 1.03125 1.03125 0.625 1.5625 0.625H10.9375V3.40625C10.9375 3.9375 11.3438 4.34375 11.875 4.34375H14.6562V9.6875L12.75 12.0938H6.46875C6.28125 12.0938 6.15625 12.2188 6.15625 12.4062C6.15625 12.5938 6.28125 12.7188 6.46875 12.7188H12.2812L11.0938 14.2188C11.0625 14.25 11.0625 14.2812 11.0312 14.3125L10.25 17.0938H6.46875C6.28125 17.0938 6.15625 17.2188 6.15625 17.4062C6.15625 17.5938 6.28125 17.7188 6.46875 17.7188H13.0938C13.2813 17.7188 13.4062 17.5938 13.4062 17.4062C13.4062 17.2188 13.2813 17.0938 13.0938 17.0938H11.6875L13.3438 16.1562C13.375 16.125 13.4062 16.125 13.4062 16.0938L14.5938 14.5938L14.6562 18.4375ZM11.5 14.9688L12.6562 15.875L11 16.8125L11.5 14.9688ZM13.1562 15.4688L11.75 14.375L16.0938 8.875C16.125 8.90625 17.5938 10.0625 17.5 9.96875L13.1562 15.4688ZM17.9062 9.46875L16.5 8.375L16.8438 7.9375L18.25 9.03125L17.9062 9.46875ZM19.3438 7.625L18.625 8.5625L17.2188 7.46875L17.9375 6.53125C17.9688 6.5 18.0312 6.5 18.0625 6.53125L19.3125 7.53125C19.375 7.5 19.375 7.53125 19.375 7.5625C19.375 7.59375 19.375 7.59375 19.3438 7.625Z" fill="#014A7F"/>
</g>
<defs>
<clipPath id="clip0_833_1326">
<rect width="20" height="20" fill="white"/>
</clipPath>
</defs>
</svg>
