<svg width="18" height="18" viewBox="0 0 18 18" fill="none" xmlns="http://www.w3.org/2000/svg">
<path d="M10.5043 11.0283C10.0565 11.3268 9.53631 11.4846 9 11.4846C8.46373 11.4846 7.94355 11.3268 7.49573 11.0283L0.119848 6.11086C0.0791298 6.08363 0.0391656 6.0553 0 6.02588L0 14.0836C0 15.0074 0.749707 15.7406 1.65702 15.7406H16.3429C17.2668 15.7406 18 14.9909 18 14.0836V6.02585C17.9607 6.05534 17.9207 6.08373 17.8799 6.111L10.5043 11.0283Z" fill="#AEAEAE"/>
<path d="M0.704884 5.23328L8.08077 10.1507C8.35998 10.3369 8.67997 10.4299 8.99997 10.4299C9.31999 10.4299 9.64002 10.3368 9.91923 10.1507L17.2951 5.23328C17.7365 4.93919 18 4.44701 18 3.9158C18 3.0024 17.2569 2.25934 16.3435 2.25934H1.65646C0.743099 2.25937 8.71912e-07 3.00244 8.71912e-07 3.91667C-0.000272946 4.17725 0.0639503 4.43385 0.186942 4.66358C0.309934 4.89331 0.487872 5.08903 0.704884 5.23328Z" fill="#AEAEAE"/>
</svg>
