<svg width="18" height="18" viewBox="0 0 18 18" fill="none" xmlns="http://www.w3.org/2000/svg">
<g clip-path="url(#clip0_833_1491)">
<g clip-path="url(#clip1_833_1491)">
<path d="M9 0.75C7.36831 0.75 5.77325 1.23385 4.41655 2.14038C3.05984 3.0469 2.00242 4.33537 1.378 5.84286C0.753575 7.35035 0.590197 9.00915 0.908525 10.6095C1.22685 12.2098 2.01259 13.6798 3.16637 14.8336C4.32016 15.9874 5.79017 16.7732 7.39051 17.0915C8.99085 17.4098 10.6497 17.2464 12.1571 16.622C13.6646 15.9976 14.9531 14.9402 15.8596 13.5835C16.7661 12.2268 17.25 10.6317 17.25 9C17.2474 6.81276 16.3774 4.71584 14.8308 3.16922C13.2842 1.6226 11.1872 0.75258 9 0.75ZM11.7803 11.7803C11.6396 11.9209 11.4489 11.9998 11.25 11.9998C11.0511 11.9998 10.8604 11.9209 10.7198 11.7803L8.46975 9.53025C8.32909 9.38963 8.25005 9.1989 8.25 9V4.5C8.25 4.30109 8.32902 4.11032 8.46967 3.96967C8.61033 3.82902 8.80109 3.75 9 3.75C9.19892 3.75 9.38968 3.82902 9.53033 3.96967C9.67099 4.11032 9.75 4.30109 9.75 4.5V8.6895L11.7803 10.7198C11.9209 10.8604 11.9998 11.0511 11.9998 11.25C11.9998 11.4489 11.9209 11.6396 11.7803 11.7803Z" fill="#FF5050"/>
</g>
</g>
<defs>
<clipPath id="clip0_833_1491">
<rect width="18" height="18" fill="white"/>
</clipPath>
<clipPath id="clip1_833_1491">
<rect width="18" height="18" fill="white"/>
</clipPath>
</defs>
</svg>
