<svg width="22" height="22" viewBox="0 0 22 22" fill="none" xmlns="http://www.w3.org/2000/svg">
<path d="M14.0938 14.7812C14.0938 14.1862 14.0938 12.375 15.8125 12.375H19.25V10.3125C19.25 9.36478 18.479 8.59375 17.5312 8.59375H2.75C1.80228 8.59375 1.03125 9.36478 1.03125 10.3125V19.25C1.03125 20.1977 1.80228 20.9687 2.75 20.9687H17.5312C18.479 20.9687 19.25 20.1977 19.25 19.25V17.1875H15.8125C14.0938 17.1875 14.0938 15.3763 14.0938 14.7812ZM14.7812 7.90625V5.82243C14.7812 5.46734 14.596 5.14525 14.2856 4.961C14.1293 4.86721 13.9511 4.81614 13.7688 4.81288C13.5866 4.80962 13.4066 4.8543 13.2471 4.94243L7.30331 7.90625H14.7812Z" fill="#FFBDBC"/>
<path d="M16.8438 15.4688C17.2234 15.4688 17.5312 15.1609 17.5312 14.7812C17.5312 14.4016 17.2234 14.0938 16.8438 14.0938C16.4641 14.0938 16.1562 14.4016 16.1562 14.7812C16.1562 15.1609 16.4641 15.4688 16.8438 15.4688Z" fill="#FFBDBC"/>
<path d="M11.6875 4.95205V3.48871C11.6914 3.28082 11.6346 3.07632 11.524 2.90024C11.4134 2.72416 11.2539 2.58414 11.065 2.49733C10.6999 2.33164 10.2998 2.39283 9.99456 2.66061L4.00781 7.90624H5.763L11.6875 4.95205ZM19.9375 13.0625H15.8125C15.1934 13.0625 14.7813 13.355 14.7813 14.7812C14.7813 16.2075 15.1934 16.5 15.8125 16.5H19.9375C20.5061 16.5 20.9688 16.0373 20.9688 15.4687V14.0937C20.9688 13.5252 20.5061 13.0625 19.9375 13.0625ZM16.8438 16.1562C16.0855 16.1562 15.4688 15.5395 15.4688 14.7812C15.4688 14.0229 16.0855 13.4062 16.8438 13.4062C17.6021 13.4062 18.2188 14.0229 18.2188 14.7812C18.2188 15.5395 17.6021 16.1562 16.8438 16.1562ZM21.2366 3.0243L19.6553 0.897174C19.6076 0.832988 19.5455 0.780858 19.4741 0.744953C19.4026 0.709049 19.3237 0.690366 19.2438 0.690399C19.1638 0.690433 19.0849 0.709181 19.0135 0.745146C18.9421 0.78111 18.88 0.833292 18.8324 0.897518L17.2607 3.01399C17.2259 3.04863 17.2022 3.09283 17.1926 3.14098C17.1829 3.18914 17.1878 3.23907 17.2066 3.28444C17.2254 3.32981 17.2572 3.36858 17.2981 3.39583C17.3389 3.42308 17.387 3.43758 17.4361 3.43749H18.2122C18.3147 3.94008 18.2587 4.46207 18.052 4.93152C17.8453 5.40096 17.4981 5.79474 17.0583 6.05858L16.8438 6.18749L18.2188 7.21874L18.2793 7.17852C18.8951 6.76787 19.4 6.21156 19.7492 5.55896C20.0985 4.90637 20.2812 4.17765 20.2813 3.43749H21.0654C21.1133 3.43751 21.1601 3.42334 21.1999 3.39675C21.2397 3.37016 21.2708 3.33235 21.2891 3.28811C21.3074 3.24388 21.3122 3.1952 21.3029 3.14824C21.2935 3.10128 21.2704 3.05814 21.2366 3.0243Z" fill="#FFBDBC"/>
</svg>
