<svg width="22" height="22" viewBox="0 0 22 22" fill="none" xmlns="http://www.w3.org/2000/svg">
<path fill-rule="evenodd" clip-rule="evenodd" d="M6.22454 8.61419C5.74348 8.0902 5.40765 7.44962 5.25031 6.75592H2.24164C1.99631 6.75758 1.7616 6.85621 1.58871 7.03028C1.41583 7.20434 1.3188 7.43972 1.3188 7.68505C1.3188 7.93038 1.41583 8.16576 1.58871 8.33983C1.7616 8.51389 1.99631 8.61252 2.24164 8.61419H6.22454ZM14.4128 8.06896C14.4011 8.14025 14.365 8.20528 14.3108 8.25296C14.2565 8.30064 14.1874 8.32802 14.1152 8.33043C14.043 8.33284 13.9722 8.31014 13.9148 8.26619C13.8575 8.22224 13.8172 8.15976 13.8007 8.08941C13.7217 7.75325 13.6822 7.40899 13.6833 7.06366C13.6836 6.96122 13.6873 6.85864 13.6944 6.75592H13.2283C13.071 7.44963 12.7352 8.09021 12.2541 8.61419H15.9267C15.9491 8.6139 15.9705 8.60487 15.9863 8.58902C16.0022 8.57318 16.0112 8.55177 16.0115 8.52937V6.84069C16.0112 6.81829 16.0022 6.79688 15.9863 6.78104C15.9705 6.76519 15.9491 6.75616 15.9267 6.75587H15.0642C14.7514 7.13923 14.5288 7.58796 14.4128 8.06891V8.06896ZM13.7827 6.13106C13.7898 6.09815 13.7972 6.06521 13.8051 6.03224C14.0298 5.08626 14.5103 4.22029 15.194 3.52901C15.7456 2.98034 16.4161 2.58288 17.1542 2.42406L16.9262 1.66567C16.9089 1.60764 16.9089 1.54583 16.9261 1.48779C16.9433 1.42974 16.9771 1.37795 17.0232 1.33874C17.0693 1.29953 17.1259 1.27459 17.1859 1.26696C17.246 1.25932 17.307 1.26933 17.3615 1.29575L21.1194 2.84305C21.1632 2.86111 21.2023 2.88892 21.2338 2.92438C21.2653 2.95985 21.2882 3.00202 21.301 3.0477C21.3137 3.09338 21.3158 3.14135 21.3072 3.18797C21.2985 3.23459 21.2794 3.27863 21.2512 3.31674C20.4439 4.39925 19.645 5.48976 18.8422 6.57583C18.807 6.62311 18.7591 6.65944 18.704 6.68059C18.649 6.70174 18.5891 6.70686 18.5313 6.69535C18.4734 6.68384 18.42 6.65618 18.3773 6.61556C18.3345 6.57494 18.3042 6.52304 18.2897 6.46588L18.0297 5.43132C17.1987 5.43763 16.3969 5.67568 15.7505 6.12423L15.7412 6.13076H15.9268C16.1149 6.13109 16.2953 6.20599 16.4283 6.33904C16.5614 6.47209 16.6363 6.65245 16.6366 6.84061V8.52928C16.6366 8.54754 16.6224 8.62085 16.6402 8.62239C17.1756 8.67098 17.6737 8.91766 18.0368 9.31416C18.3999 9.71066 18.602 10.2284 18.6034 10.7661V12.8265C18.8296 12.9199 19.0231 13.0783 19.1594 13.2815C19.2958 13.4848 19.369 13.7238 19.3697 13.9686V15.3811C19.369 15.6259 19.2958 15.8649 19.1595 16.0682C19.0231 16.2714 18.8296 16.4298 18.6034 16.5232V18.5837C18.602 19.154 18.3748 19.7005 17.9715 20.1038C17.5683 20.507 17.0217 20.7342 16.4514 20.7357H2.83946C2.26919 20.7342 1.72268 20.507 1.31943 20.1038C0.916175 19.7006 0.688975 19.1541 0.6875 18.5838V7.68503C0.688487 7.27315 0.852543 6.87842 1.14379 6.58718C1.43503 6.29594 1.82976 6.13188 2.24164 6.13089H5.15921C5.15297 6.03871 5.14983 5.94575 5.1498 5.85203C5.15331 4.76968 5.58573 3.73286 6.35231 2.96876C7.11889 2.20466 8.15711 1.7756 9.23946 1.7756C10.3218 1.7756 11.36 2.20466 12.1266 2.96876C12.8932 3.73286 13.3256 4.76968 13.3291 5.85203C13.3291 5.94575 13.326 6.03871 13.3197 6.13089L13.7827 6.13106ZM14.413 6.17644C14.3704 6.35446 14.3402 6.53524 14.3228 6.71746C14.6044 6.28187 14.9693 5.90613 15.3964 5.61179C16.2091 5.04765 17.2286 4.77067 18.2682 4.81257C18.3388 4.8112 18.4078 4.83382 18.4639 4.87675C18.52 4.91968 18.5599 4.98037 18.577 5.0489L18.734 5.67431L20.5129 3.26737L17.7127 2.11413L17.8545 2.58644H17.8542C17.8672 2.63039 17.8705 2.67669 17.8636 2.72203C17.8567 2.76737 17.84 2.81064 17.8145 2.84875C17.789 2.88687 17.7554 2.91889 17.7161 2.94253C17.6768 2.96617 17.6328 2.98086 17.5872 2.98554C16.8534 3.06078 16.1786 3.42837 15.6333 3.97085C15.0321 4.58018 14.6099 5.34309 14.413 6.17618V6.17644ZM15.1473 13.6994C14.9216 13.6993 14.7028 13.7776 14.5282 13.9208C14.3537 14.064 14.2342 14.2633 14.1902 14.4848C14.1461 14.7062 14.1802 14.9361 14.2866 15.1352C14.393 15.3343 14.5652 15.4904 14.7738 15.5768C14.9823 15.6632 15.2144 15.6746 15.4305 15.6091C15.6465 15.5436 15.8332 15.4051 15.9586 15.2174C16.0841 15.0297 16.1405 14.8043 16.1184 14.5796C16.0963 14.3549 15.9969 14.1448 15.8373 13.9852C15.7468 13.8944 15.6392 13.8225 15.5208 13.7734C15.4024 13.7244 15.2755 13.6992 15.1473 13.6994ZM15.3954 14.4271C15.338 14.3697 15.2625 14.3339 15.1817 14.3259C15.1009 14.318 15.0199 14.3382 14.9523 14.3833C14.8848 14.4284 14.835 14.4955 14.8115 14.5732C14.7879 14.6509 14.792 14.7343 14.823 14.8093C14.8541 14.8843 14.9102 14.9463 14.9818 14.9845C15.0534 15.0228 15.136 15.0351 15.2156 15.0193C15.2952 15.0034 15.3669 14.9605 15.4184 14.8977C15.4699 14.835 15.4981 14.7563 15.4981 14.6751C15.4982 14.6291 15.4891 14.5834 15.4715 14.5409C15.4539 14.4983 15.428 14.4596 15.3954 14.4271ZM18.1349 13.3591H14.385C14.2235 13.3597 14.0689 13.4242 13.9547 13.5384C13.8405 13.6526 13.776 13.8073 13.7753 13.9688V15.3813C13.776 15.5428 13.8405 15.6975 13.9547 15.8117C14.0689 15.9259 14.2235 15.9904 14.385 15.9911H18.1349C18.2964 15.9904 18.4511 15.9259 18.5653 15.8117C18.6795 15.6975 18.7439 15.5428 18.7446 15.3813V13.9687C18.7439 13.8072 18.6795 13.6525 18.5653 13.5383C18.4511 13.4241 18.2964 13.3596 18.1349 13.3589V13.3591ZM14.385 12.734H17.9781V10.7661C17.9767 10.3616 17.8154 9.97403 17.5294 9.68798C17.2433 9.40192 16.8557 9.2406 16.4512 9.23921H2.24164C1.90651 9.23938 1.58042 9.13059 1.31252 8.92923V18.5838C1.31393 18.9883 1.47525 19.3759 1.7613 19.662C2.04736 19.948 2.43492 20.1093 2.83946 20.1107H16.4514C16.8559 20.1093 17.2434 19.9479 17.5294 19.6619C17.8154 19.3758 17.9767 18.9883 17.9781 18.5838V16.6161H14.385C14.0578 16.6154 13.7441 16.485 13.5127 16.2536C13.2813 16.0222 13.151 15.7086 13.1503 15.3813V13.9687C13.151 13.6414 13.2813 13.3278 13.5127 13.0964C13.7441 12.8649 14.0578 12.7346 14.385 12.7339V12.734ZM11.3326 8.61431H7.146C6.56715 8.17582 6.14062 7.56663 5.92659 6.8727C5.71256 6.17877 5.72184 5.43516 5.95313 4.74679C6.18442 4.05843 6.62604 3.46007 7.21566 3.03617C7.80528 2.61227 8.51313 2.38423 9.23931 2.38423C9.9655 2.38423 10.6733 2.61227 11.263 3.03617C11.8526 3.46007 12.2942 4.05843 12.5255 4.74679C12.7568 5.43516 12.7661 6.17877 12.552 6.8727C12.338 7.56663 11.9115 8.17582 11.3326 8.61431ZM8.9268 3.54525V3.95225C8.69173 4.02018 8.48508 4.16265 8.33799 4.3582C8.19089 4.55374 8.1113 4.79178 8.11121 5.03648C8.11121 5.81851 8.63775 5.99898 9.15677 6.17653C9.45162 6.2775 9.74235 6.37702 9.74235 6.66761C9.74296 6.73407 9.7304 6.79999 9.7054 6.86156C9.68039 6.92313 9.64343 6.97914 9.59666 7.02635C9.54989 7.07355 9.49422 7.11103 9.43288 7.1366C9.37154 7.16218 9.30575 7.17534 9.23929 7.17534C9.17283 7.17534 9.10704 7.16218 9.0457 7.1366C8.98436 7.11103 8.9287 7.07355 8.88192 7.02635C8.83515 6.97914 8.79819 6.92313 8.77318 6.86156C8.74818 6.79999 8.73562 6.73407 8.73623 6.66761C8.73623 6.58473 8.70331 6.50524 8.6447 6.44664C8.58609 6.38803 8.50661 6.3551 8.42372 6.3551C8.34084 6.3551 8.26135 6.38803 8.20274 6.44664C8.14414 6.50524 8.11121 6.58473 8.11121 6.66761C8.11135 6.91227 8.19096 7.15027 8.33805 7.34577C8.48514 7.54127 8.69176 7.68371 8.9268 7.75163V8.15863C8.9268 8.24151 8.95973 8.321 9.01833 8.37961C9.07694 8.43822 9.15643 8.47114 9.23931 8.47114C9.3222 8.47114 9.40168 8.43822 9.46029 8.37961C9.5189 8.321 9.55182 8.24151 9.55182 8.15863V7.75163C9.78688 7.68369 9.99351 7.54123 10.1406 7.34569C10.2877 7.15015 10.3673 6.91213 10.3674 6.66744C10.3674 5.93139 9.86575 5.75969 9.35696 5.58553C9.04883 5.48009 8.73623 5.37305 8.73623 5.03631C8.73562 4.96985 8.74818 4.90394 8.77318 4.84236C8.79819 4.78079 8.83515 4.72478 8.88192 4.67757C8.9287 4.63037 8.98436 4.59289 9.0457 4.56732C9.10704 4.54175 9.17283 4.52858 9.23929 4.52858C9.30575 4.52858 9.37154 4.54175 9.43288 4.56732C9.49422 4.59289 9.54989 4.63037 9.59666 4.67757C9.64343 4.72478 9.68039 4.78079 9.7054 4.84236C9.7304 4.90394 9.74296 4.96985 9.74235 5.03631C9.74235 5.11919 9.77527 5.19868 9.83388 5.25729C9.89249 5.31589 9.97198 5.34882 10.0549 5.34882C10.1377 5.34882 10.2172 5.31589 10.2758 5.25729C10.3344 5.19868 10.3674 5.11919 10.3674 5.03631C10.3673 4.79167 10.2877 4.55368 10.1406 4.35817C9.99356 4.16267 9.78697 4.02023 9.55195 3.95229V3.54525C9.55195 3.46236 9.51903 3.38288 9.46042 3.32427C9.40181 3.26566 9.32232 3.23274 9.23944 3.23274C9.15656 3.23274 9.07707 3.26566 9.01846 3.32427C8.95986 3.38288 8.92693 3.46236 8.92693 3.54525H8.9268Z" fill="#3447AA"/>
</svg>
