<svg width="22" height="22" viewBox="0 0 22 22" fill="none" xmlns="http://www.w3.org/2000/svg">
<g clip-path="url(#clip0_833_1287)">
<path d="M6.87682 13.8446C6.87682 13.5882 6.65169 13.3801 6.37372 13.3801C6.09575 13.3801 5.87067 13.5882 5.87067 13.8446C5.87067 14.1012 6.0958 14.3091 6.37372 14.3091C6.65169 14.3091 6.87682 14.1013 6.87682 13.8446ZM6.37372 10.0817C6.09637 10.0817 5.87067 10.29 5.87067 10.5462C5.87067 10.8023 6.09637 11.0107 6.37372 11.0107C6.65112 11.0107 6.87701 10.8023 6.87701 10.5462C6.87701 10.29 6.65112 10.0817 6.37372 10.0817ZM6.87682 7.24781C6.87682 6.99118 6.65169 6.78328 6.37372 6.78328C6.09575 6.78328 5.87067 6.99118 5.87067 7.24781C5.87067 7.50424 6.0958 7.71234 6.37372 7.71234C6.65169 7.71234 6.87682 7.50424 6.87682 7.24781ZM17.3237 0.019165C14.741 0.019165 12.6474 2.11276 12.6476 4.69542C12.6476 7.27802 14.7412 9.37167 17.3238 9.37167C19.9064 9.37167 21.9999 7.27802 21.9999 4.69542C21.9971 2.11409 19.9052 0.022106 17.3237 0.019165ZM17.302 4.3609C18.1054 4.36114 18.7773 4.97149 18.854 5.7712C18.9307 6.57115 18.3872 7.29823 17.5984 7.45088V7.88823C17.5984 8.07161 17.4498 8.22028 17.2664 8.22028C17.083 8.22028 16.9344 8.07161 16.9344 7.88823V7.43532C16.2356 7.26503 15.7436 6.6395 15.7427 5.92038C15.7442 5.83329 15.7798 5.75026 15.8419 5.68919C15.9041 5.62812 15.9877 5.5939 16.0748 5.5939C16.1619 5.5939 16.2455 5.62812 16.3076 5.68919C16.3697 5.75026 16.4054 5.83329 16.4068 5.92038C16.4068 6.41475 16.8077 6.81548 17.302 6.81548C17.7963 6.81548 18.1971 6.41475 18.1971 5.92038C18.1971 5.42582 17.7963 5.02504 17.302 5.02504C16.5124 5.02504 15.8476 4.43486 15.7538 3.65109C15.6601 2.86712 16.167 2.13686 16.9344 1.95063V1.53187C16.9358 1.44478 16.9715 1.36175 17.0336 1.30068C17.0957 1.23961 17.1793 1.20539 17.2664 1.20539C17.3535 1.20539 17.4371 1.23961 17.4992 1.30068C17.5613 1.36175 17.597 1.44478 17.5984 1.53187V1.93507C18.3311 2.07795 18.8603 2.71941 18.8612 3.4658C18.8597 3.5529 18.8241 3.63592 18.762 3.69699C18.6999 3.75806 18.6163 3.79228 18.5292 3.79228C18.4421 3.79228 18.3584 3.75806 18.2963 3.69699C18.2342 3.63592 18.1986 3.5529 18.1971 3.4658C18.1966 2.97755 17.8048 2.57952 17.3164 2.57137C17.2897 2.57563 17.2626 2.57651 17.2357 2.57398C16.7557 2.60974 16.3899 3.01849 16.4079 3.49953C16.4257 3.98033 16.8207 4.36095 17.3022 4.36095L17.302 4.3609ZM11.9646 20.6862C11.6908 20.4143 11.4735 20.0909 11.3251 19.7347C11.1767 19.3785 11.1002 18.9965 11.0998 18.6106V17.2803H0V18.6161C0.00554991 19.8698 1.02284 20.8838 2.27651 20.8854H12.1894C12.108 20.8267 12.0327 20.7599 11.9646 20.6862L11.9646 20.6862Z" fill="#FFA9DC"/>
<path d="M12.8312 7.55615H8.80962C8.72252 7.55467 8.6395 7.51904 8.57843 7.45693C8.51736 7.39482 8.48314 7.31121 8.48314 7.2241C8.48314 7.137 8.51736 7.05338 8.57843 6.99127C8.6395 6.92916 8.72252 6.89353 8.80962 6.89206H12.4673C12.1464 6.19642 11.9813 5.43909 11.9835 4.67299C11.9846 4.303 12.023 3.93405 12.098 3.57159H3.1617L3.07385 16.6163H11.4489C11.4907 16.6146 11.5323 16.6216 11.5712 16.6367C11.6102 16.6519 11.6455 16.675 11.6751 16.7045C11.7047 16.734 11.7278 16.7694 11.7431 16.8082C11.7584 16.8471 11.7655 16.8888 11.7639 16.9305V18.611C11.77 19.8674 12.7891 20.8832 14.0457 20.8855H14.0531C15.3047 20.8828 16.3177 19.8676 16.3177 18.6162V9.94066C15.6034 9.80541 14.9249 9.52371 14.3249 9.11332C13.7248 8.70292 13.2163 8.17272 12.8312 7.5561V7.55615ZM6.37373 14.9734C5.73022 14.9734 5.20658 14.4671 5.20658 13.8446C5.20658 13.2224 5.73022 12.716 6.37373 12.716C7.01728 12.716 7.54111 13.2224 7.54111 13.8446C7.54111 14.4671 7.01742 14.9734 6.37373 14.9734ZM6.37373 11.6748C5.73022 11.6748 5.20658 11.1686 5.20658 10.5462C5.20658 9.92387 5.73022 9.4176 6.37373 9.4176C7.01728 9.4176 7.54111 9.92383 7.54111 10.5462C7.54111 11.1684 7.01742 11.6748 6.37373 11.6748ZM6.37373 8.37644C5.73022 8.37644 5.20658 7.87003 5.20658 7.24782C5.20658 6.62547 5.73022 6.119 6.37373 6.119C7.01728 6.119 7.54111 6.62523 7.54111 7.24763C7.54111 7.87003 7.01742 8.37644 6.37373 8.37644ZM13.8689 14.1971H8.80962C8.72252 14.1956 8.6395 14.16 8.57843 14.0979C8.51736 14.0357 8.48314 13.9521 8.48314 13.865C8.48314 13.7779 8.51736 13.6943 8.57843 13.6322C8.6395 13.5701 8.72252 13.5344 8.80962 13.533H13.8689C13.956 13.5344 14.039 13.5701 14.1 13.6322C14.1611 13.6943 14.1953 13.7779 14.1953 13.865C14.1953 13.9521 14.1611 14.0357 14.1 14.0979C14.039 14.16 13.956 14.1956 13.8689 14.1971ZM14.2009 10.5446C14.2009 10.728 14.0523 10.8766 13.8689 10.8766H8.80962C8.72252 10.8751 8.6395 10.8395 8.57843 10.7774C8.51736 10.7153 8.48314 10.6317 8.48314 10.5446C8.48314 10.4575 8.51736 10.3738 8.57843 10.3117C8.6395 10.2496 8.72252 10.214 8.80962 10.2125H13.8689C14.0523 10.2125 14.2009 10.3613 14.2009 10.5446Z" fill="#FFA9DC"/>
</g>
<defs>
<clipPath id="clip0_833_1287">
<rect width="22" height="21.9633" fill="white"/>
</clipPath>
</defs>
</svg>
