<svg width="32" height="32" viewBox="0 0 32 32" fill="none" xmlns="http://www.w3.org/2000/svg">
<rect width="32" height="32" rx="16" fill="#FF0000" fill-opacity="0.08"/>
<path fill-rule="evenodd" clip-rule="evenodd" d="M12 9.33325C11.4696 9.33325 10.9609 9.54397 10.5858 9.91904C10.2107 10.2941 10 10.8028 10 11.3333V20.6666C10 21.197 10.2107 21.7057 10.5858 22.0808C10.9609 22.4559 11.4696 22.6666 12 22.6666H16C16.5304 22.6666 17.0391 22.4559 17.4142 22.0808C17.7893 21.7057 18 21.197 18 20.6666V11.3333C18 10.8028 17.7893 10.2941 17.4142 9.91904C17.0391 9.54397 16.5304 9.33325 16 9.33325H12ZM18.862 12.8619C18.987 12.7369 19.1566 12.6667 19.3333 12.6667C19.5101 12.6667 19.6796 12.7369 19.8047 12.8619L22.4713 15.5286C22.5963 15.6536 22.6665 15.8231 22.6665 15.9999C22.6665 16.1767 22.5963 16.3462 22.4713 16.4713L19.8047 19.1379C19.6789 19.2594 19.5105 19.3266 19.3357 19.325C19.1609 19.3235 18.9937 19.2534 18.8701 19.1298C18.7465 19.0062 18.6764 18.839 18.6749 18.6642C18.6734 18.4894 18.7406 18.321 18.862 18.1953L20.3907 16.6666H14.6667C14.4899 16.6666 14.3203 16.5963 14.1953 16.4713C14.0702 16.3463 14 16.1767 14 15.9999C14 15.8231 14.0702 15.6535 14.1953 15.5285C14.3203 15.4035 14.4899 15.3333 14.6667 15.3333H20.3907L18.862 13.8046C18.737 13.6796 18.6668 13.51 18.6668 13.3333C18.6668 13.1565 18.737 12.9869 18.862 12.8619Z" fill="#E03030" fill-opacity="0.9"/>
</svg>
