<svg width="17" height="17" viewBox="0 0 17 17" fill="none" xmlns="http://www.w3.org/2000/svg">
<path d="M10.6875 11.5285C10.6875 11.0417 10.6875 9.55976 12.0938 9.55976H14.9062V7.87226C14.9062 7.09685 14.2754 6.46601 13.5 6.46601H1.40625C0.630844 6.46601 0 7.09685 0 7.87226V15.1848C0 15.9602 0.630844 16.591 1.40625 16.591H13.5C14.2754 16.591 14.9062 15.9602 14.9062 15.1848V13.4973H12.0938C10.6875 13.4973 10.6875 12.0154 10.6875 11.5285ZM11.25 5.90351V4.19857C11.25 3.90804 11.0984 3.64451 10.8444 3.49376C10.7166 3.41703 10.5708 3.37524 10.4216 3.37257C10.2725 3.36991 10.1253 3.40646 9.99478 3.47857L5.13169 5.90351H11.25Z" fill="#686FFF"/>
<path d="M12.9375 12.0912C13.2482 12.0912 13.5 11.8393 13.5 11.5287C13.5 11.218 13.2482 10.9662 12.9375 10.9662C12.6268 10.9662 12.375 11.218 12.375 11.5287C12.375 11.8393 12.6268 12.0912 12.9375 12.0912Z" fill="#686FFF"/>
<path d="M8.71895 3.4868V2.28952C8.72213 2.11944 8.67563 1.95212 8.58517 1.80805C8.4947 1.66398 8.36419 1.54942 8.20961 1.4784C7.91092 1.34284 7.58355 1.3929 7.3338 1.61199L2.43555 5.90387H3.87161L8.71895 3.4868ZM15.469 10.1226H12.094C11.5874 10.1226 11.2502 10.362 11.2502 11.5289C11.2502 12.6958 11.5874 12.9351 12.094 12.9351H15.469C15.9341 12.9351 16.3127 12.5566 16.3127 12.0914V10.9664C16.3127 10.5012 15.9341 10.1226 15.469 10.1226ZM12.9377 12.6539C12.3173 12.6539 11.8127 12.1493 11.8127 11.5289C11.8127 10.9084 12.3173 10.4039 12.9377 10.4039C13.5581 10.4039 14.0627 10.9084 14.0627 11.5289C14.0627 12.1493 13.5581 12.6539 12.9377 12.6539ZM16.5318 1.90955L15.238 0.16918C15.199 0.116664 15.1482 0.0740119 15.0898 0.0446353C15.0313 0.0152587 14.9668 -2.72962e-05 14.9013 3.65907e-08C14.8359 2.73694e-05 14.7714 0.0153672 14.7129 0.0447927C14.6545 0.0742181 14.6037 0.116913 14.5647 0.169461L13.2789 1.90112C13.2504 1.92946 13.231 1.96563 13.2231 2.00502C13.2152 2.04442 13.2192 2.08527 13.2346 2.1224C13.2499 2.15952 13.276 2.19124 13.3094 2.21354C13.3428 2.23583 13.3821 2.24769 13.4223 2.24762H14.0574C14.1412 2.65883 14.0954 3.08592 13.9263 3.47001C13.7572 3.8541 13.4731 4.17628 13.1132 4.39215L12.9377 4.49762L14.0627 5.34137L14.1122 5.30846C14.616 4.97247 15.0292 4.51732 15.3149 3.98337C15.6006 3.44943 15.7502 2.85321 15.7502 2.24762H16.3917C16.4309 2.24764 16.4692 2.23604 16.5018 2.21428C16.5344 2.19253 16.5598 2.1616 16.5748 2.1254C16.5898 2.08921 16.5937 2.04938 16.586 2.01096C16.5784 1.97254 16.5595 1.93725 16.5318 1.90955Z" fill="#686FFF"/>
</svg>
