<svg width="11" height="19" viewBox="0 0 11 19" fill="none" xmlns="http://www.w3.org/2000/svg">
<path d="M5.03594 0.000104895C4.8192 0.00403896 4.6125 0.0921431 4.45956 0.245774L0.295784 4.4127C0.207669 4.4872 0.135957 4.57915 0.0851759 4.68276C0.0343951 4.78637 0.00564896 4.89939 0.000752046 5.01467C-0.00414487 5.12995 0.0149138 5.24499 0.0567252 5.35254C0.0985366 5.46008 0.162192 5.55778 0.243672 5.63948C0.325153 5.72118 0.422687 5.7851 0.530118 5.8272C0.637549 5.8693 0.752541 5.88866 0.867835 5.88408C0.983129 5.87949 1.09622 5.85104 1.19996 5.80054C1.30371 5.75004 1.39586 5.67857 1.47059 5.59066L4.20759 2.85365L4.21389 17.4899C4.21389 17.7112 4.30183 17.9235 4.45836 18.0801C4.61488 18.2366 4.82718 18.3245 5.04854 18.3245C5.2699 18.3245 5.4822 18.2366 5.63872 18.0801C5.79525 17.9235 5.88318 17.7112 5.88318 17.4899L5.87374 2.8379L8.62334 5.59066C8.78147 5.73768 8.99041 5.81771 9.2063 5.81393C9.42218 5.81014 9.6282 5.72285 9.78108 5.57038C9.93395 5.41791 10.0218 5.21212 10.0262 4.99625C10.0305 4.78038 9.95105 4.57122 9.80444 4.4127L5.64067 0.245774C5.56154 0.166299 5.46721 0.103584 5.36331 0.0613743C5.25941 0.019165 5.14807 -0.00167296 5.03594 0.000104895Z" fill="#48B971"/>
</svg>
