<svg width="14" height="13" viewBox="0 0 14 13" fill="none" xmlns="http://www.w3.org/2000/svg">
<path d="M0.546875 8.9363C0.401835 8.9363 0.262735 8.87868 0.160176 8.77612C0.057617 8.67356 0 8.53446 0 8.38942L0 4.51142C0.000810603 3.77278 0.294591 3.06463 0.816886 2.54233C1.33918 2.02003 2.04733 1.72624 2.78597 1.72542H10.1354L9.34352 0.933575C9.29274 0.882791 9.25246 0.822503 9.22498 0.756152C9.1975 0.689801 9.18335 0.618687 9.18335 0.54687C9.18336 0.401828 9.24098 0.262728 9.34354 0.16017C9.4461 0.0576124 9.5852 -2.56389e-06 9.73024 0C9.87528 2.56406e-06 10.0144 0.0576225 10.1169 0.160184L11.8423 1.88557C11.9449 1.98813 12.0025 2.12723 12.0025 2.27227C12.0025 2.41731 11.9449 2.55641 11.8423 2.65897L10.0657 4.43563C9.96311 4.53819 9.82401 4.59581 9.67896 4.59581C9.53392 4.59581 9.39482 4.53819 9.29225 4.43563C9.18969 4.33306 9.13207 4.19396 9.13207 4.04892C9.13207 3.90387 9.18969 3.76477 9.29225 3.66221L10.1354 2.81917H2.78597C2.33732 2.81968 1.90718 2.99813 1.58994 3.31538C1.2727 3.63263 1.09425 4.06277 1.09375 4.51142V8.38942C1.09375 8.53446 1.03613 8.67356 0.933574 8.77612C0.831015 8.87868 0.691915 8.9363 0.546875 8.9363ZM13.4531 3.96455C13.3081 3.96455 13.169 4.02216 13.0664 4.12472C12.9639 4.22728 12.9062 4.36638 12.9062 4.51142V8.38942C12.9058 8.83808 12.7273 9.26821 12.4101 9.58546C12.0928 9.90271 11.6627 10.0812 11.214 10.0817H3.86457L4.70766 9.23861C4.75845 9.18783 4.79873 9.12754 4.82621 9.06119C4.8537 8.99483 4.86784 8.92372 4.86784 8.8519C4.86784 8.78008 4.8537 8.70897 4.82621 8.64261C4.79873 8.57626 4.75845 8.51597 4.70766 8.46519C4.65688 8.41441 4.59659 8.37412 4.53024 8.34664C4.46389 8.31916 4.39277 8.30501 4.32096 8.30501C4.24914 8.30501 4.17802 8.31916 4.11167 8.34664C4.04532 8.37412 3.98503 8.41441 3.93425 8.46519L2.15759 10.2418C2.1068 10.2926 2.06652 10.3529 2.03903 10.4192C2.01155 10.4856 1.9974 10.5567 1.9974 10.6285C1.9974 10.7003 2.01155 10.7714 2.03903 10.8378C2.06652 10.9041 2.1068 10.9644 2.15759 11.0152L3.88298 12.7406C3.98554 12.8432 4.12464 12.9008 4.26969 12.9008C4.41473 12.9008 4.55383 12.8432 4.65639 12.7406C4.75896 12.638 4.81657 12.4989 4.81657 12.3539C4.81657 12.2089 4.75896 12.0697 4.65639 11.9672L3.86457 11.1754H11.214C11.9527 11.1746 12.6608 10.8808 13.1831 10.3585C13.7054 9.83622 13.9992 9.12806 14 8.38942V4.51142C14 4.36638 13.9424 4.22728 13.8398 4.12472C13.7373 4.02216 13.5982 3.96455 13.4531 3.96455Z" fill="#AEAEAE"/>
</svg>
