<svg width="14" height="14" viewBox="0 0 14 14" fill="none" xmlns="http://www.w3.org/2000/svg">
<g clip-path="url(#clip0_833_2313)">
<path d="M0.546875 9.48595C0.401835 9.48595 0.262735 9.42833 0.160176 9.32577C0.057617 9.22321 0 9.08411 0 8.93907L0 5.06107C0.000810603 4.32243 0.294591 3.61428 0.816886 3.09198C1.33918 2.56968 2.04733 2.27589 2.78597 2.27507H10.1354L9.34352 1.48323C9.29274 1.43244 9.25246 1.37216 9.22498 1.3058C9.1975 1.23945 9.18335 1.16834 9.18335 1.09652C9.18336 0.95148 9.24098 0.81238 9.34354 0.709822C9.4461 0.607265 9.5852 0.54965 9.73024 0.549652C9.87528 0.549655 10.0144 0.607275 10.1169 0.709836L11.8423 2.43523C11.9449 2.53779 12.0025 2.67688 12.0025 2.82192C12.0025 2.96696 11.9449 3.10606 11.8423 3.20862L10.0657 4.98528C9.96311 5.08784 9.82401 5.14546 9.67896 5.14546C9.53392 5.14546 9.39482 5.08784 9.29225 4.98528C9.18969 4.88272 9.13207 4.74361 9.13207 4.59857C9.13207 4.45352 9.18969 4.31442 9.29225 4.21186L10.1354 3.36882H2.78597C2.33732 3.36933 1.90718 3.54778 1.58994 3.86503C1.2727 4.18228 1.09425 4.61242 1.09375 5.06107V8.93907C1.09375 9.08411 1.03613 9.22321 0.933574 9.32577C0.831015 9.42833 0.691915 9.48595 0.546875 9.48595ZM13.4531 4.5142C13.3081 4.5142 13.169 4.57182 13.0664 4.67438C12.9639 4.77693 12.9062 4.91603 12.9062 5.06107V8.93907C12.9058 9.38773 12.7273 9.81786 12.4101 10.1351C12.0928 10.4524 11.6627 10.6308 11.214 10.6313H3.86457L4.70766 9.78826C4.75845 9.73748 4.79873 9.67719 4.82621 9.61084C4.8537 9.54449 4.86784 9.47337 4.86784 9.40155C4.86784 9.32973 4.8537 9.25862 4.82621 9.19227C4.79873 9.12592 4.75845 9.06563 4.70766 9.01484C4.65688 8.96406 4.59659 8.92378 4.53024 8.89629C4.46389 8.86881 4.39277 8.85466 4.32096 8.85466C4.24914 8.85466 4.17802 8.86881 4.11167 8.89629C4.04532 8.92378 3.98503 8.96406 3.93425 9.01484L2.15759 10.7914C2.1068 10.8422 2.06652 10.9025 2.03903 10.9689C2.01155 11.0352 1.9974 11.1063 1.9974 11.1782C1.9974 11.25 2.01155 11.3211 2.03903 11.3874C2.06652 11.4538 2.1068 11.5141 2.15759 11.5649L3.88298 13.2903C3.98554 13.3928 4.12464 13.4504 4.26969 13.4504C4.41473 13.4504 4.55383 13.3928 4.65639 13.2903C4.75896 13.1877 4.81657 13.0486 4.81657 12.9035C4.81657 12.7585 4.75896 12.6194 4.65639 12.5168L3.86457 11.7251H11.214C11.9527 11.7243 12.6608 11.4305 13.1831 10.9082C13.7054 10.3859 13.9992 9.67771 14 8.93907V5.06107C14 4.91603 13.9424 4.77693 13.8398 4.67438C13.7373 4.57182 13.5982 4.5142 13.4531 4.5142Z" fill="#AEAEAE"/>
</g>
<defs>
<clipPath id="clip0_833_2313">
<rect width="14" height="14" fill="white"/>
</clipPath>
</defs>
</svg>
