<svg width="22" height="22" viewBox="0 0 22 22" fill="none" xmlns="http://www.w3.org/2000/svg">
<g clip-path="url(#clip0_833_1311)">
<path d="M3.51629 14.5209C4.12272 15.0597 4.81084 15.4987 5.55496 15.8217L9.44529 13.3787C9.84185 13.1323 10.31 13.0268 10.7739 13.0793C11.2379 13.1319 11.6705 13.3394 12.0019 13.6684L13.31 14.9765C15.2707 13.5309 16.5 11.2182 16.5 8.70832C16.5 4.41191 13.0047 0.916656 8.70829 0.916656C4.41188 0.916656 0.916626 4.41191 0.916626 8.70832C0.916804 9.80552 1.14844 10.8903 1.5964 11.8919C2.04436 12.8935 2.69856 13.7894 3.51629 14.5209ZM9.05663 9.39582H8.35996C7.87308 9.39648 7.40366 9.21453 7.04441 8.88591C6.68516 8.55729 6.46222 8.10589 6.41961 7.62087C6.37701 7.13586 6.51784 6.65251 6.81429 6.26628C7.11074 5.88006 7.54125 5.61906 8.02079 5.53482V4.81249C8.02079 4.63015 8.09323 4.45529 8.22216 4.32635C8.35109 4.19742 8.52596 4.12499 8.70829 4.12499C8.89063 4.12499 9.0655 4.19742 9.19443 4.32635C9.32336 4.45529 9.39579 4.63015 9.39579 4.81249V5.49999H10.3125C10.4948 5.49999 10.6697 5.57242 10.7986 5.70135C10.9275 5.83029 11 6.00515 11 6.18749C11 6.36983 10.9275 6.54469 10.7986 6.67363C10.6697 6.80256 10.4948 6.87499 10.3125 6.87499H8.35996C8.20923 6.87499 8.06467 6.93487 7.95809 7.04145C7.8515 7.14803 7.79163 7.29259 7.79163 7.44332C7.79163 7.76599 8.04646 8.02082 8.35996 8.02082H9.05663C9.54351 8.02016 10.0129 8.20211 10.3722 8.53074C10.7314 8.85936 10.9544 9.31076 10.997 9.79577C11.0396 10.2808 10.8987 10.7641 10.6023 11.1504C10.3058 11.5366 9.87533 11.7976 9.39579 11.8818V12.6032C9.39579 12.7856 9.32336 12.9604 9.19443 13.0894C9.0655 13.2183 8.89063 13.2907 8.70829 13.2907C8.52596 13.2907 8.35109 13.2183 8.22216 13.0894C8.09323 12.9604 8.02079 12.7856 8.02079 12.6032V11.9167H7.10413C6.92179 11.9167 6.74692 11.8442 6.61799 11.7153C6.48906 11.5864 6.41663 11.4115 6.41663 11.2292C6.41663 11.0468 6.48906 10.872 6.61799 10.743C6.74692 10.6141 6.92179 10.5417 7.10413 10.5417H9.05663C9.20736 10.5417 9.35192 10.4818 9.4585 10.3752C9.56508 10.2686 9.62496 10.1241 9.62496 9.97332C9.62581 9.89802 9.61175 9.82329 9.5836 9.75344C9.55546 9.68359 9.51377 9.62 9.46095 9.56633C9.40812 9.51265 9.34521 9.46995 9.27582 9.44069C9.20643 9.41143 9.13193 9.39618 9.05663 9.39582Z" fill="#3447AA"/>
<path d="M21.0833 11H17.4166C17.2354 11 17.0582 11.0538 16.9075 11.1545C16.7568 11.2553 16.6393 11.3984 16.5699 11.5659C16.5006 11.7334 16.4824 11.9177 16.5178 12.0954C16.5531 12.2732 16.6404 12.4366 16.7686 12.5647L17.9538 13.75L14.2083 17.4955L11.1897 14.4769C11.0436 14.3309 10.8525 14.2386 10.6474 14.2148C10.4423 14.191 10.2351 14.2372 10.0595 14.3458L0.434466 20.3042C0.235295 20.4355 0.0951578 20.6392 0.0438196 20.8722C-0.00751855 21.1052 0.033987 21.349 0.159521 21.5519C0.285054 21.7547 0.484726 21.9006 0.716125 21.9586C0.947525 22.0167 1.19242 21.9822 1.3988 21.8625L10.406 16.2864L13.5593 19.4398C13.6444 19.525 13.7454 19.5925 13.8566 19.6387C13.9678 19.6848 14.087 19.7085 14.2074 19.7085C14.3278 19.7085 14.447 19.6848 14.5582 19.6387C14.6694 19.5925 14.7704 19.525 14.8555 19.4398L19.25 15.0462L20.4352 16.2314C20.5634 16.3596 20.7267 16.4468 20.9045 16.4822C21.0823 16.5176 21.2666 16.4994 21.4341 16.43C21.6015 16.3607 21.7447 16.2432 21.8454 16.0925C21.9461 15.9418 21.9999 15.7646 22 15.5833V11.9167C22 11.6736 21.9034 11.4404 21.7315 11.2685C21.5596 11.0966 21.3264 11 21.0833 11Z" fill="#3447AA"/>
</g>
<defs>
<clipPath id="clip0_833_1311">
<rect width="22" height="22" fill="white"/>
</clipPath>
</defs>
</svg>
