<svg width="15" height="14" viewBox="0 0 15 14" fill="none" xmlns="http://www.w3.org/2000/svg">
<path d="M5.37333 2.73413e-05C4.11333 -0.00663933 2.88667 1.20669 3.44667 2.71336H1.33333C0.979711 2.71336 0.640573 2.85384 0.390524 3.10389C0.140476 3.35393 0 3.69307 0 4.04669V5.38003C0 5.55684 0.0702379 5.72641 0.195262 5.85143C0.320286 5.97646 0.489856 6.04669 0.666667 6.04669H6.66667V4.04669H8V6.04669H14C14.1768 6.04669 14.3464 5.97646 14.4714 5.85143C14.5964 5.72641 14.6667 5.55684 14.6667 5.38003V4.04669C14.6667 3.69307 14.5262 3.35393 14.2761 3.10389C14.0261 2.85384 13.687 2.71336 13.3333 2.71336H11.22C12 0.533361 9.06667 -1.00664 7.71333 0.873361L7.33333 1.38003L6.95333 0.860027C6.53333 0.266694 5.95333 0.00669401 5.37333 2.73413e-05ZM5.33333 1.38003C5.92667 1.38003 6.22667 2.10003 5.80667 2.52003C5.38667 2.94003 4.66667 2.64003 4.66667 2.04669C4.66667 1.86988 4.7369 1.70031 4.86193 1.57529C4.98695 1.45027 5.15652 1.38003 5.33333 1.38003ZM9.33333 1.38003C9.92667 1.38003 10.2267 2.10003 9.80667 2.52003C9.38667 2.94003 8.66667 2.64003 8.66667 2.04669C8.66667 1.86988 8.73691 1.70031 8.86193 1.57529C8.98695 1.45027 9.15652 1.38003 9.33333 1.38003ZM0.666667 6.71336V12.0467C0.666667 12.4003 0.807142 12.7395 1.05719 12.9895C1.30724 13.2396 1.64638 13.38 2 13.38H12.6667C13.0203 13.38 13.3594 13.2396 13.6095 12.9895C13.8595 12.7395 14 12.4003 14 12.0467V6.71336H8V12.0467H6.66667V6.71336H0.666667Z" fill="#3447AA"/>
</svg>
