<svg width="37" height="36" viewBox="0 0 37 36" fill="none" xmlns="http://www.w3.org/2000/svg">
<path d="M30.2989 13.5586L25.849 14.6667L20.291 7.74085C20.0477 7.43751 19.7393 7.1927 19.3887 7.02447C19.038 6.85625 18.6541 6.76892 18.2652 6.76892C17.8763 6.76892 17.4924 6.85625 17.1418 7.02447C16.7911 7.1927 16.4828 7.43751 16.2394 7.74085L10.6814 14.6667L6.14496 13.5586C5.7102 13.4545 5.25603 13.4637 4.82582 13.5852C4.39562 13.7067 4.00375 13.9364 3.68765 14.2525C3.37155 14.5686 3.14178 14.9605 3.02028 15.3907C2.89879 15.8209 2.88963 16.2751 2.99369 16.7098L6.05838 27.4796C6.16312 27.8541 6.39088 28.1824 6.70498 28.4117C7.01908 28.641 7.40123 28.7579 7.78985 28.7435H28.5674C28.9561 28.7579 29.3382 28.641 29.6523 28.4117C29.9664 28.1824 30.1942 27.8541 30.2989 27.4796L33.3809 16.7098C33.4804 16.282 33.4705 15.836 33.3521 15.413C33.2337 14.99 33.0106 14.6036 32.7035 14.2896C32.3964 13.9755 32.0151 13.744 31.5948 13.6162C31.1745 13.4884 30.7288 13.4686 30.2989 13.5586Z" fill="#EFA83C"/>
<path d="M2.16433 11.6868C3.35966 11.6868 4.32866 10.7178 4.32866 9.52249C4.32866 8.32716 3.35966 7.35815 2.16433 7.35815C0.969004 7.35815 0 8.32716 0 9.52249C0 10.7178 0.969004 11.6868 2.16433 11.6868Z" fill="#EFA83C"/>
<path d="M34.1956 11.6868C35.3909 11.6868 36.3599 10.7178 36.3599 9.52249C36.3599 8.32716 35.3909 7.35815 34.1956 7.35815C33.0003 7.35815 32.0312 8.32716 32.0312 9.52249C32.0312 10.7178 33.0003 11.6868 34.1956 11.6868Z" fill="#EFA83C"/>
<path d="M18.18 4.32866C19.3753 4.32866 20.3443 3.35966 20.3443 2.16433C20.3443 0.969004 19.3753 0 18.18 0C16.9846 0 16.0156 0.969004 16.0156 2.16433C16.0156 3.35966 16.9846 4.32866 18.18 4.32866Z" fill="#EFA83C"/>
<path d="M28.5667 35.0623H7.78908C7.32987 35.0623 6.88946 34.8799 6.56475 34.5552C6.24004 34.2305 6.05762 33.79 6.05762 33.3308C6.05762 32.8716 6.24004 32.4312 6.56475 32.1065C6.88946 31.7818 7.32987 31.5994 7.78908 31.5994H28.5667C29.0259 31.5994 29.4663 31.7818 29.791 32.1065C30.1157 32.4312 30.2981 32.8716 30.2981 33.3308C30.2981 33.79 30.1157 34.2305 29.791 34.5552C29.4663 34.8799 29.0259 35.0623 28.5667 35.0623Z" fill="#EFA83C"/>
</svg>
