<svg width="14" height="14" viewBox="0 0 14 14" fill="none" xmlns="http://www.w3.org/2000/svg">
<g clip-path="url(#clip0_833_2263)">
<path d="M12.8333 9.15527e-05H7.98424C7.66347 9.15527e-05 7.21513 0.185925 6.98849 0.412398L0.340453 7.0604C-0.113484 7.51383 -0.113484 8.25723 0.340453 8.71011L5.29046 13.6599C5.74337 14.1134 6.48605 14.1134 6.93965 13.6594L13.5877 7.01245C13.8141 6.78601 14 6.33696 14 6.01687V1.16681C14 0.525259 13.4748 9.15527e-05 12.8333 9.15527e-05ZM10.4998 4.66678C9.85546 4.66678 9.3331 4.14387 9.3331 3.50007C9.3331 2.8552 9.85546 2.33335 10.4998 2.33335C11.1442 2.33335 11.6667 2.8552 11.6667 3.50007C11.6667 4.14387 11.1442 4.66678 10.4998 4.66678Z" fill="#AEAEAE"/>
</g>
<defs>
<clipPath id="clip0_833_2263">
<rect width="14" height="14" fill="white"/>
</clipPath>
</defs>
</svg>
