<svg width="23" height="23" viewBox="0 0 23 23" fill="none" xmlns="http://www.w3.org/2000/svg">
<path d="M10.9525 20.7143C5.5715 20.7143 1.19055 16.3333 1.19055 10.9524C1.19055 5.57142 5.5715 1.19047 10.9525 1.19047C16.3334 1.19047 20.7144 5.57142 20.7144 10.9524C20.7144 16.3333 16.3334 20.7143 10.9525 20.7143ZM10.9525 2.61904C6.35246 2.61904 2.61912 6.3619 2.61912 10.9524C2.61912 15.5428 6.35246 19.2857 10.9525 19.2857C15.5525 19.2857 19.2858 15.5428 19.2858 10.9524C19.2858 6.3619 15.5525 2.61904 10.9525 2.61904Z" fill="black" fill-opacity="0.44"/>
<path d="M20.9521 21.6665C20.7712 21.6665 20.5902 21.5998 20.4474 21.457L18.5426 19.5522C18.2664 19.276 18.2664 18.8189 18.5426 18.5427C18.8188 18.2665 19.2759 18.2665 19.5521 18.5427L21.4569 20.4475C21.7331 20.7237 21.7331 21.1808 21.4569 21.457C21.314 21.5998 21.1331 21.6665 20.9521 21.6665Z" fill="black" fill-opacity="0.44"/>
</svg>
