<svg width="11" height="19" viewBox="0 0 11 19" fill="none" xmlns="http://www.w3.org/2000/svg">
<path d="M4.1646 0.885893L4.15831 15.5158L1.41815 12.782C1.34066 12.7025 1.24811 12.6393 1.14589 12.596C1.04368 12.5527 0.933865 12.5303 0.822873 12.53C0.65857 12.5323 0.498607 12.5831 0.363034 12.6759C0.227461 12.7688 0.12231 12.8996 0.0607618 13.0519C-0.000786265 13.2043 -0.0159932 13.3714 0.0170471 13.5324C0.0500874 13.6933 0.129905 13.841 0.246495 13.9568L4.41027 18.1268C4.48779 18.2045 4.57985 18.266 4.68118 18.308C4.78251 18.35 4.89113 18.3717 5.00083 18.3717C5.11052 18.3717 5.21914 18.35 5.32047 18.308C5.4218 18.266 5.51386 18.2045 5.59138 18.1268L9.75516 13.9568C10.5709 13.1694 9.35515 11.9631 8.57405 12.782L5.82445 15.5316L5.83075 0.885893C5.83774 0.772185 5.82138 0.658248 5.78268 0.551099C5.74398 0.443951 5.68375 0.34586 5.60571 0.262868C5.52766 0.179875 5.43346 0.113739 5.32889 0.0685304C5.22432 0.0233223 5.1116 0 4.99768 0C4.88375 0 4.77103 0.0233223 4.66646 0.0685304C4.5619 0.113739 4.46769 0.179875 4.38964 0.262868C4.3116 0.34586 4.25137 0.443951 4.21267 0.551099C4.17397 0.658248 4.15761 0.772185 4.1646 0.885893Z" fill="#FF5050"/>
</svg>
