<svg width="16" height="16" viewBox="0 0 16 16" fill="none" xmlns="http://www.w3.org/2000/svg">
<g clip-path="url(#clip0_833_2246)">
<path d="M10.2251 7.26811C9.59728 6.92114 8.92977 6.65677 8.26886 6.3825C7.88553 6.22388 7.51873 6.03883 7.19489 5.78107C6.55711 5.27218 6.67938 4.44604 7.42621 4.1189C7.6377 4.02637 7.8591 3.99663 8.08381 3.98341C8.94959 3.93715 9.77242 4.09576 10.5556 4.47248C10.9455 4.66084 11.0744 4.60136 11.2066 4.1949C11.3454 3.76531 11.461 3.32911 11.5899 2.89622C11.6758 2.60542 11.5701 2.41376 11.2958 2.29149C10.7935 2.07009 10.278 1.91147 9.73607 1.82555C9.0289 1.7165 9.0289 1.7132 9.0256 1.00273C9.02229 0.00145344 9.02229 0.00145342 8.01772 0.00145342C7.87232 0.00145342 7.72692 -0.00185111 7.58152 0.00145342C7.11227 0.0146715 7.03297 0.0972847 7.01975 0.569832C7.01314 0.781322 7.01975 0.992812 7.01644 1.20761C7.01314 1.83547 7.00983 1.82555 6.40841 2.04365C4.95442 2.57238 4.05559 3.56374 3.95975 5.14991C3.87384 6.55433 4.60744 7.50273 5.76072 8.19338C6.4712 8.61966 7.25767 8.87081 8.01111 9.20457C8.30521 9.33344 8.5861 9.48215 8.83063 9.68703C9.55432 10.2851 9.42214 11.2798 8.56296 11.6565C8.10363 11.8581 7.61787 11.9077 7.11888 11.8449C6.34893 11.7491 5.61202 11.5475 4.91807 11.1873C4.51161 10.9758 4.39265 11.032 4.25386 11.4715C4.13489 11.8515 4.02915 12.2348 3.9234 12.6181C3.78131 13.1337 3.83418 13.2559 4.32656 13.4971C4.95442 13.8012 5.62524 13.9565 6.30927 14.0655C6.84461 14.1514 6.86113 14.1746 6.86774 14.7297C6.87104 14.9809 6.87104 15.2353 6.87435 15.4865C6.87765 15.8037 7.02966 15.9888 7.35681 15.9954C7.72692 16.002 8.10033 16.002 8.47044 15.9921C8.77445 15.9855 8.92977 15.8202 8.92977 15.5129C8.92977 15.1692 8.94629 14.8223 8.93307 14.4786C8.91655 14.1283 9.06856 13.9499 9.40562 13.8573C10.1822 13.6459 10.8431 13.2295 11.352 12.6082C12.7663 10.8899 12.2277 8.37513 10.2251 7.26811Z" fill="#AEAEAE"/>
</g>
<defs>
<clipPath id="clip0_833_2246">
<rect width="16" height="16" fill="white"/>
</clipPath>
</defs>
</svg>
