<svg width="16" height="18" viewBox="0 0 16 18" fill="none" xmlns="http://www.w3.org/2000/svg">
<path d="M7.39516 8.67066C8.58632 8.67066 9.6178 8.24341 10.4606 7.40047C11.3034 6.5577 11.7306 5.52651 11.7306 4.33521C11.7306 3.14426 11.3034 2.11295 10.4605 1.26987C9.61752 0.427217 8.58618 0 7.39516 0C6.20383 0 5.17259 0.427217 4.32983 1.27001C3.48707 2.11281 3.05967 3.14415 3.05967 4.33521C3.05967 5.52651 3.48703 6.55785 4.32997 7.40064C5.17291 8.2433 6.20425 8.67066 7.39516 8.67066ZM14.981 13.8411C14.9567 13.4903 14.9076 13.1077 14.8352 12.7037C14.7621 12.2967 14.6681 11.9119 14.5554 11.5602C14.4391 11.1967 14.2809 10.8377 14.0854 10.4937C13.8824 10.1366 13.644 9.82571 13.3765 9.56988C13.0967 9.30224 12.7543 9.08705 12.3582 8.93004C11.9635 8.77395 11.5261 8.69485 11.0583 8.69485C10.8745 8.69485 10.6968 8.77022 10.3536 8.99367C10.1097 9.15253 9.86499 9.31026 9.61959 9.46687C9.3838 9.61713 9.06437 9.7579 8.66982 9.88534C8.28489 10.0099 7.89406 10.0731 7.50829 10.0731C7.12256 10.0731 6.73184 10.0099 6.34649 9.88534C5.95239 9.758 5.63296 9.61727 5.39742 9.46701C5.12425 9.29246 4.87711 9.13317 4.66272 8.9935C4.31995 8.77008 4.1421 8.69467 3.95837 8.69467C3.49034 8.69467 3.0531 8.77391 2.65854 8.93021C2.26276 9.08691 1.92012 9.3021 1.64011 9.57002C1.37274 9.82599 1.13421 10.1367 0.9315 10.4937C0.736102 10.8377 0.577899 11.1965 0.461427 11.5603C0.348928 11.912 0.254885 12.2967 0.181831 12.7037C0.109444 13.1072 0.060296 13.4899 0.035968 13.8415C0.0117673 14.1953 -0.000228098 14.5498 3.28407e-06 14.9044C3.28407e-06 15.844 0.29869 16.6047 0.887695 17.1656C1.46942 17.7192 2.23913 18.0001 3.17516 18.0001H11.8423C12.7783 18.0001 13.5477 17.7194 14.1296 17.1657C14.7187 16.6051 15.0174 15.8443 15.0174 14.9043C15.0173 14.5416 15.0051 14.1838 14.981 13.8411Z" fill="#AEAEAE"/>
</svg>
