<svg width="14" height="14" viewBox="0 0 14 14" fill="none" xmlns="http://www.w3.org/2000/svg">
<path d="M11.8893 8.73622C12.3217 7.7085 12.4212 6.57111 12.1738 5.48393C11.9264 4.39674 11.3445 3.41442 10.5099 2.67505C9.67534 1.93567 8.63005 1.47641 7.52097 1.36183C6.41188 1.24724 5.29478 1.48309 4.32667 2.03622L3.66467 0.878223C4.67645 0.300124 5.82209 -0.00267261 6.98738 1.7773e-05C8.15267 0.00270816 9.2969 0.310792 10.306 0.893557C13.2993 2.62222 14.446 6.32222 13.0513 9.40689L13.946 9.92356L11.1687 11.3996L11.0587 8.25689L11.8893 8.73622ZM2.056 4.59889C1.62343 5.62669 1.52386 6.76421 1.77128 7.85154C2.0187 8.93886 2.60068 9.9213 3.43538 10.6607C4.27009 11.4001 5.31555 11.8594 6.42478 11.9738C7.534 12.0883 8.65121 11.8523 9.61933 11.2989L10.2807 12.4569C9.26882 13.0349 8.12315 13.3376 6.95787 13.3348C5.79258 13.332 4.64838 13.0238 3.63933 12.4409C0.646 10.7122 -0.500666 7.01289 0.894667 3.92756L0 3.41222L2.77667 1.93556L2.88667 5.07822L2.056 4.59889ZM4.63933 8.00089H8.306C8.3944 8.00089 8.47919 7.96577 8.5417 7.90326C8.60421 7.84075 8.63933 7.75596 8.63933 7.66756C8.63933 7.57915 8.60421 7.49437 8.5417 7.43185C8.47919 7.36934 8.3944 7.33422 8.306 7.33422H5.63933C5.19731 7.33422 4.77338 7.15863 4.46082 6.84607C4.14826 6.53351 3.97267 6.10958 3.97267 5.66756C3.97267 5.22553 4.14826 4.80161 4.46082 4.48905C4.77338 4.17649 5.19731 4.00089 5.63933 4.00089H6.306V3.33422H7.63933V4.00089H9.306V5.33422H5.63933C5.55093 5.33422 5.46614 5.36934 5.40363 5.43185C5.34112 5.49437 5.306 5.57915 5.306 5.66756C5.306 5.75596 5.34112 5.84075 5.40363 5.90326C5.46614 5.96577 5.55093 6.00089 5.63933 6.00089H8.306C8.74803 6.00089 9.17195 6.17649 9.48451 6.48905C9.79707 6.80161 9.97267 7.22553 9.97267 7.66756C9.97267 8.10958 9.79707 8.53351 9.48451 8.84607C9.17195 9.15863 8.74803 9.33422 8.306 9.33422H7.63933V10.0009H6.306V9.33422H4.63933V8.00089Z" fill="#3447AA" fill-opacity="0.86"/>
</svg>
