<svg width="18" height="18" viewBox="0 0 18 18" fill="none" xmlns="http://www.w3.org/2000/svg">
<g clip-path="url(#clip0_833_1507)">
<path d="M17.626 13.4982L11.2675 1.80963C10.2459 0.0897472 7.7555 0.0874621 6.73252 1.80963L0.374304 13.4982C-0.670047 15.2557 0.594347 17.4811 2.64125 17.4811H15.3585C17.4037 17.4811 18.6704 15.2575 17.626 13.4982ZM9 15.3717C8.41858 15.3717 7.94531 14.8985 7.94531 14.3171C7.94531 13.7356 8.41858 13.2624 9 13.2624C9.58141 13.2624 10.0547 13.7356 10.0547 14.3171C10.0547 14.8985 9.58141 15.3717 9 15.3717ZM10.0547 11.153C10.0547 11.7344 9.58141 12.2077 9 12.2077C8.41858 12.2077 7.94531 11.7344 7.94531 11.153V5.87956C7.94531 5.29815 8.41858 4.82487 9 4.82487C9.58141 4.82487 10.0547 5.29815 10.0547 5.87956V11.153Z" fill="#D88B53"/>
</g>
<defs>
<clipPath id="clip0_833_1507">
<rect width="18" height="18" fill="white"/>
</clipPath>
</defs>
</svg>
